/* XPM */
static char *chests_close1754950445[] = {
/* columns rows colors chars-per-pixel */
"64 64 124 2 ",
"   c #8F3E06",
".  c #903E06",
"X  c #9B3E07",
"o  c #934406",
"O  c #9D4207",
"+  c #974907",
"@  c #9C4C07",
"#  c #9E5107",
"$  c #A14606",
"%  c #A54B07",
"&  c #A94F07",
"*  c #A34D08",
"=  c #A84F08",
"-  c #A35507",
";  c #AB5507",
":  c #A55907",
">  c #AE5907",
",  c #A55508",
"<  c #A95608",
"1  c #A65B08",
"2  c #AA5B08",
"3  c #B15C07",
"4  c #B25608",
"5  c #B25E08",
"6  c #B85808",
"7  c #AD6208",
"8  c #B46207",
"9  c #B96707",
"0  c #BF6D07",
"q  c #B56308",
"w  c #B86608",
"e  c #B36908",
"r  c #BB6B08",
"t  c #BE7109",
"y  c #C76408",
"u  c #C36D08",
"i  c #CC6F09",
"p  c #D46E09",
"a  c #D86909",
"s  c #C87D07",
"d  c #C27509",
"f  c #CC7509",
"g  c #C67A09",
"h  c #C97D09",
"j  c #DC750A",
"k  c #DE7A09",
"l  c #E07D0A",
"z  c #CC8307",
"x  c #C5830B",
"c  c #CC8309",
"v  c #C48A0B",
"b  c #CE880A",
"n  c #D4820B",
"m  c #DD800A",
"M  c #D38C0A",
"N  c #DA8E0A",
"B  c #CC930A",
"V  c #CF9A0B",
"C  c #D6910A",
"Z  c #DB950B",
"A  c #D39B0B",
"S  c #DB9B0B",
"D  c #E2830A",
"F  c #E58B0A",
"G  c #EB8D0F",
"H  c #E5930A",
"J  c #E89409",
"K  c #E69C08",
"L  c #EB9C0A",
"P  c #F09E0F",
"I  c #E49810",
"U  c #F79512",
"Y  c #F69B11",
"T  c #F89D12",
"R  c #D7A50C",
"E  c #DEA70E",
"W  c #DBA90B",
"Q  c #DCB00C",
"!  c #E5A50D",
"~  c #EEA30A",
"^  c #E6A90A",
"/  c #EFAA0A",
"(  c #F1A50C",
")  c #F8A60F",
"_  c #F1AB09",
"`  c #E3B10D",
"'  c #EDB50D",
"]  c #F4B30A",
"[  c #F5BB0C",
"{  c #F9BE09",
"}  c #EEAB10",
"|  c #F4A211",
" . c #F9A312",
".. c #F5AC10",
"X. c #F9AA12",
"o. c #EBBC10",
"O. c #F5B310",
"+. c #FBB312",
"@. c #F7BD10",
"#. c #FABB12",
"$. c #E4C00D",
"%. c #EBCF0E",
"&. c #F7C20C",
"*. c #FAC409",
"=. c #F4CD0D",
"-. c #FBCC0A",
";. c #EFD50F",
":. c #F1D70E",
">. c #FCD30C",
",. c #F7D90D",
"<. c #FDDB0D",
"1. c #F7C110",
"2. c #FAC411",
"3. c #F6CD10",
"4. c #FBCC11",
"5. c #FDD312",
"6. c #FEDC11",
"7. c #FDE30E",
"8. c #FFEC0F",
"9. c #FFF00F",
"0. c #FEE310",
"q. c #FFEC10",
"w. c #FFF310",
"e. c None",
/* pixels */
"e.e.e.e.e.e.e.e.e.e.e.e.e.e.e.e.e.e.e.e.e.e.e.e.e.e.e.e.e.e.e.e.e.e.e.e.e.e.e.e.e.e.e.e.e.e.e.e.e.e.e.e.e.e.e.e.e.e.e.e.e.e.e.e.",
"e.e.e.e.e.e.e.e.e.e.e.e.e.e.e.e.e.e.e.e.e.e.e.e.e.e.e.e.e.e.e.e.e.e.e.e.e.e.e.e.e.e.e.e.e.e.e.e.e.e.e.e.e.e.e.e.e.e.e.e.e.e.e.e.",
"e.e.e.e.e.e.e.e.e.e.e.e.e.e.e.e.e.e.e.e.e.e.e.e.e.e.e.e.e.e.e.e.e.e.e.e.e.e.e.e.e.e.e.e.e.e.e.e.e.e.e.e.e.e.e.e.e.e.e.e.e.e.e.e.",
"e.e.e.e.e.e.e.e.e.e.e.e.e.e.e.e.e.e.e.e.e.e.e.e.e.e.e.e.e.e.e.e.e.e.e.e.e.e.e.e.e.e.e.e.e.e.e.e.e.e.e.e.e.e.e.e.e.e.e.e.e.e.e.e.",
"e.e.e.e.e.e.e.e.e.e.e.e.e.e.e.e.e.e.e.e.e.e.e.e.e.e.e.e.e.e.e.e.e.e.e.e.e.e.e.e.e.e.e.e.e.e.e.e.e.e.e.e.e.e.e.e.e.e.e.e.e.e.e.e.",
"e.e.e.e.e.e.e.e.e.e.e.e.e.e.e.e.e.e.e.e.e.e.e.e.e.e.e.e.e.e.e.e.e.e.e.e.e.e.e.e.e.e.e.e.e.e.e.e.e.e.e.e.e.e.e.e.e.e.e.e.e.e.e.e.",
"e.e.e.e.e.e.e.e.e.e.e.e.e.e.e.e.e.e.e.e.e.e.e.e.e.e.e.e.e.e.e.e.e.e.e.e.e.e.e.e.e.e.e.e.e.e.e.e.e.e.e.e.e.e.e.e.e.e.e.e.e.e.e.e.",
"e.e.e.e.e.e.e.e.e.e.e.e.e.e.e.e.e.e.e.e.e.e.e.e.e.e.e.e.e.e.e.e.e.e.e.e.e.e.e.e.e.e.e.e.e.e.e.e.e.e.e.e.e.e.e.e.e.e.e.e.e.e.e.e.",
"e.e.e.e.e.e.e.e.e.e.e.e.e.e.e.e.e.e.e.e.e.e.e.e.e.e.e.e.e.e.e.e.e.e.e.e.e.e.e.e.e.e.e.e.e.e.e.e.e.e.e.e.e.e.e.e.e.e.e.e.e.e.e.e.",
"e.e.e.e.e.e.e.e.e.e.e.e.e.e.e.e.e.e.e.e.e.e.e.e.e.e.e.e.e.e.e.e.e.e.e.e.e.e.e.e.e.e.e.e.e.e.e.e.e.e.e.e.e.e.e.e.e.e.e.e.e.e.e.e.",
"e.e.e.e.e.e.e.e.e.e.e.e.e.e.e.e.e.e.e.e.e.e.e.e.e.e.e.e.e.e.e.e.e.e.e.e.e.e.e.e.e.e.e.e.e.e.e.e.e.e.e.e.e.e.e.e.e.e.e.e.e.e.e.e.",
"e.e.e.e.e.e.e.e.e.e.e.e.e.e.e.e.e.e.e.e.e.e.e.e.e.e.e.e.e.e.e.e.e.e.e.e.e.e.e.e.e.e.e.e.e.e.e.e.e.e.e.e.e.e.e.e.e.e.e.e.e.e.e.e.",
"e.e.e.e.e.e.e.e.e.e.e.e.e.e.e.e.e.e.e.e.e.e.e.e.e.e.e.e.e.e.e.e.e.e.e.e.e.e.e.e.e.e.e.e.e.e.e.e.e.e.e.e.e.e.e.e.e.e.e.e.e.e.e.e.",
"e.e.e.e.e.e.e.e.e.e.e.e.e.e.e.e.e.e.e.e.e.e.e.e.e.e.e.e.e.e.e.e.e.e.e.e.e.e.e.e.e.e.e.e.e.e.e.e.e.e.e.e.e.e.e.e.e.e.e.e.e.e.e.e.",
"e.e.e.e.e.e.e.e.e.e.e.e.e.e.e.e.e.e.e.e.e.e.e.e.e.e.e.e.e.e.e.e.e.e.e.e.e.e.e.e.e.e.e.e.e.e.e.e.e.e.e.e.e.e.e.e.e.e.e.e.e.e.e.e.",
"e.e.e.e.e.e.e.e.e.e.e.e.e.e.e.e.e.e.e.e.e.e.e.e.e.e.e.e.e.e.e.e.e.e.e.e.e.e.e.e.e.e.e.e.e.e.e.e.e.e.e.e.e.e.e.e.e.e.e.e.e.e.e.e.",
"e.e.e.e.e.e.e.e.e.e.e.e.e.e.e.e.e.e.e.e.e.e.e.e.e.e.e.e.e.e.e.e.e.e.e.e.e.e.e.e.e.e.e.e.e.e.e.e.e.e.e.e.e.e.e.e.e.e.e.e.e.e.e.e.",
"e.e.e.e.e.e.e.e.e.e.e.e.e.e.e.e.e.e.e.e.e.e.e.e.e.e.e.e.e.e.e.e.e.e.e.e.e.e.e.e.e.e.e.e.e.e.e.e.e.e.e.e.e.e.e.e.e.e.e.e.e.e.e.e.",
"e.e.e.e.e.e.e.e.e.e.e.e.e.e.e.e.e.e.w.7.-.,.:.e.e.e.e.e.e.e.e.e.e.e.e.e.e.e.e.e.e.e.e.e.e.e.e.e.e.e.e.e.e.e.e.e.e.e.e.e.e.e.e.e.",
"e.e.e.e.e.e.e.e.e.e.e.e.e.e.e.e.>.8.w.:.b q 2 2 2 2 e.e.e.e.e.e.e.e.e.e.e.e.e.e.e.e.e.e.e.e.e.e.e.e.e.e.e.e.e.e.e.e.e.e.e.e.e.e.",
"e.e.e.e.e.e.e.e.e.e.e.e.e.e.e.*.-.>.$.7 O O O 2 t x R =.*.] e.e.e._ ( ~ L e.e.e.e.e.e.e.e.e.e.e.e.e.e.e.e.e.e.e.e.e.e.e.e.e.e.e.",
"e.e.e.e.e.e.e.e.e.e.e.e.e.e.-.*.*.^ < X O e C [ ] &.7.-.] _ ] ] _ _ ~ H M c z c e.e.e.e.e.e.e.e.e.e.e.e.e.e.e.e.e.e.e.e.e.e.e.e.",
"e.e.e.e.e.e.e.e.e.e.e.e.e.e.*.*.{ 8 O < A / &.[ ] <.>.] _ ] ] / _ ~ S z z z c h h e.e.e.e.e.e.e.e.e.e.e.e.e.e.e.e.e.e.e.e.e.e.e.",
"e.e.e.e.e.e.e.e.e.e.e.e.e.7.-.-.C O 2 ` ] ] [ _ >.>.] ~ ] >.-._ ~ K z z x h h g g g e.e.e.e.e.e.e.e.e.e.e.e.e.e.e.e.e.e.e.e.e.e.",
"e.e.e.e.e.e.e.e.e.e.e.e.e.w.<.&.2 $ W [ / [ ~ 3.6.] ~ ~ &.0.0.&.~ M h h h g g d d d e.e.e.e.e.e.e.e.e.e.e.e.e.e.e.e.e.e.e.e.e.e.",
"e.e.e.e.e.e.e.e.e.e.e.e.w.9.9.W O x [ ~ @.~ @.5.] L L / 6.0.0.0.^ s g g x s e t d d d e.e.e.e.e.e.e.e.e.e.e.e.e.e.e.e.e.e.e.e.e.",
"e.e.e.e.e.e.e.e.e.e.e.e.9.9.9.v * ! L ] ~ } 5.@.L L L ] 0.0.0.0.S g d z S S h : r t 0 e.e.e.e.e.e.e.e.e.e.e.e.e.e.e.e.e.e.e.e.e.",
"e.e.e.e.e.e.e.e.e.e.e.e.8.9.7.7 w J } ~ L 3.@.L H J L ~ -.0.6.3.c d g C S S A t : r r e.e.e.e.e.e.e.e.e.e.e.e.e.e.e.e.e.e.e.e.e.",
"e.e.e.e.e.e.e.e.e.e.e.>.-.8.;.* u L ~ J @.2.L F H F J ~ _ >.0.` d d z S Z Z Z b # q r e.e.e.e.e.e.e.e.e.e.e.e.e.e.e.e.e.e.e.e.e.",
"e.e.e.e.e.e.e.e.e.e.e.8.>.>.Q O n | F O.1.P F F F F J _ ~ ] 5.S t t M C C C C C 7 2 w w e.e.e.e.e.e.e.e.e.e.e.e.e.e.e.e.e.e.e.e.",
"e.e.e.e.e.e.e.e.e.e.e.-.7.-.z % J F | #.~ D D D D F ~ _ ~ L / z 0 d M C C M C C q # q q e.e.e.e.e.e.e.e.e.e.e.e.e.e.e.e.e.e.e.e.",
"e.e.e.e.e.e.e.e.e.e.e.*.>.<.d ; m I #.( m l m D D F [ _ ~ L H d r g M M M M b b e + q q e.e.e.e.e.e.e.e.e.e.e.e.e.e.e.e.e.e.e.e.",
"e.e.e.e.e.e.e.e.e.e.e.*.&.>.v $ 4 z J l k k k k D ..[ ~ L L N r r g M b c b c M e o 2 5 e.e.e.e.e.e.e.e.e.e.e.e.e.e.e.e.e.e.e.e.",
"e.e.e.e.e.e.e.e.e.e.e.*.&.&.>.` s 8 ; & 6 y p k P +.@.~ L L n w w g b c c c g r # O > 3 e.e.e.e.e.e.e.e.e.e.e.e.e.e.e.e.e.e.e.e.",
"e.e.e.e.e.e.e.e.e.e.{ *.{ { &.<.*._ K z 9 & % > h I 4.] L J f w q g c t e : # @ , ; 3 ; e.e.e.e.e.e.e.e.e.e.e.e.e.e.e.e.e.e.e.e.",
"e.e.e.e.e.e.e.e.e.e.Y ) _ _ [ &.<.{ ] ] _ K n 0 ; < o.5.( J f q 8 2 - @ # < > > 3 ; ; < e.e.e.e.e.e.e.e.e.e.e.e.e.e.e.e.e.e.e.e.",
"e.e.e.e.e.e.e.e.e.e.U T T D G O.-.>.] _ _ _ _ ~ L H 3.6.2.J u q 3 < ; 3 3 3 ; ; < > w d e.e.e.e.e.e.e.e.e.e.e.e.e.e.e.e.e.e.e.e.",
"e.e.e.e.e.e.e.e.e.e.U T X.| m | 2.5.-.] / ~ ~ ~ L L O.5.5.@.0 2 3 3 3 ; ; ; 3 q 0 g c z e.e.e.e.e.e.e.e.e.e.e.e.e.e.e.e.e.e.e.e.",
"e.e.e.e.e.e.e.e.e.e.T T X.+.} D O.4.5.5.1./ / / L K L @.5.2.d ; > > ; > 3 r d h c h h h e.e.e.e.e.e.e.e.e.e.e.e.e.e.e.e.e.e.e.e.",
"e.e.e.e.e.e.e.e.e.e.T  .X.} } | H @.[ ] -.[ ] >.5.[ ~ J { 2.d ; ; 3 w d g c h h g g g g e.e.e.e.e.e.e.e.e.e.e.e.e.e.e.e.e.e.e.e.",
"e.e.e.e.e.e.e.e.e.e.G  .+.Z = g ] ~ L ( { >.[ &.7.8.,.] ] *.s q d g g h h g g t t t g t e.e.e.e.e.e.e.e.e.e.e.e.e.e.e.e.e.e.e.e.",
"e.e.e.e.e.e.e.e.e.e.a G +.Z X e 0.' F L ] >.<.{ -.8.8.<.*.-.S g g g g d d h c 7 # t t t e.e.e.e.e.e.e.e.e.e.e.e.e.e.e.e.e.e.e.e.",
"e.e.e.e.e.e.e.e.e.e.l j | Z X e 0.^ l J ~ { =.-.{ >.8.9.>.*.K d d d d h b M C 7 + r r r e.e.e.e.e.e.e.e.e.e.e.e.e.e.e.e.e.e.e.e.",
"e.e.e.e.e.e.e.e.e.e.l D D N O 7 =.~ k D ~ ] ] ] ] { 7.9.q.>.S t t g M C C C M 1 + w r w e.e.e.e.e.e.e.e.e.e.e.e.e.e.e.e.e.e.e.e.",
"e.e.e.e.e.e.e.e.e.e.j l F i O 2 _ _ ~ L _ ] ] ] [ >.*.7.9.8.S r r g M M b b c 1 o w q q e.e.e.e.e.e.e.e.e.e.e.e.e.e.e.e.e.e.e.e.",
"e.e.e.e.e.e.e.e.e.e.| D F f O > ~ _ _ _ _ ] _ ] <.8.>.-.9.9.W 9 9 t b c c z c : o q q 5 e.e.e.e.e.e.e.e.e.e.e.e.e.e.e.e.e.e.e.e.",
"e.e.e.e.e.e.e.e.e.e.+. .F f O ; ~ _ ~ _ _ _ _ -.7.8.8.-.>.9.W 8 w 0 c h h h h - o 5 3 3 e.e.e.e.e.e.e.e.e.e.e.e.e.e.e.e.e.e.e.e.",
"e.e.e.e.e.e.e.e.e.e.X.{ ..f O ; K ~ ~ ~ ~ ~ &.7.7.8.9.8.-.7.W 5 5 r g g g d d # o ; ; > e.e.e.e.e.e.e.e.e.e.e.e.e.e.e.e.e.e.e.e.",
"e.e.e.e.e.e.e.e.e.e.D O.2.N X ; H L ~ L ~ ] 6.6.5.q.q.w.7.>.A 3 5 w d d d t t # . ; ; ; e.e.e.e.e.e.e.e.e.e.e.e.e.e.e.e.e.e.e.e.",
"e.e.e.e.e.e.e.e.e.e.D F #.E O ; H L L J ~ -.6.4./ <.w.w.9.7.M > ; q t t 0 0 r @ o ; & ; e.e.e.e.e.e.e.e.e.e.e.e.e.e.e.e.e.e.e.e.",
"e.e.e.e.e.e.e.e.e.e...G | S O ; F H J L 2.5.4.~ L *.q.w.w.9.A ; ; 5 r r r r e @ . % % , e.e.e.e.e.e.e.e.e.e.e.e.e.e.e.e.e.e.e.e.",
"e.e.e.e.e.e.e.e.e.e.e.O.H n O ; F F H O.5.4./ H J &.>.w.9.9.A ; ; > w w w q w + o % % % e.e.e.e.e.e.e.e.e.e.e.e.e.e.e.e.e.e.e.e.",
"e.e.e.e.e.e.e.e.e.e.e.e._ f O , F D ~ 2.2._ F F J ,.-.<.9.w.A % & ; q q q 5 5 O   $ % % e.e.e.e.e.e.e.e.e.e.e.e.e.e.e.e.e.e.e.e.",
"e.e.e.e.e.e.e.e.e.e.e.e.e.e.e.e.e.e.@.2...F D D H 7.7.-.8.w.A % % , 5 5 5 3 3 o   $ $ $ e.e.e.e.e.e.e.e.e.e.e.e.e.e.e.e.e.e.e.e.",
"e.e.e.e.e.e.e.e.e.e.e.e.e.e.e.e.e.e.e.e.e.k l l F <.w.<.>.9.A $ $ & 3 3 > ; ; o   $ $ e.e.e.e.e.e.e.e.e.e.e.e.e.e.e.e.e.e.e.e.e.",
"e.e.e.e.e.e.e.e.e.e.e.e.e.e.e.e.e.e.e.e.e.e.e.l D =.w.w.>.>.B $ $ & ; 4 ; e.e.e.  e.e.e.e.e.e.e.e.e.e.e.e.e.e.e.e.e.e.e.e.e.e.e.",
"e.e.e.e.e.e.e.e.e.e.e.e.e.e.e.e.e.e.e.e.e.e.e.e.e.-.7.9.8.>.z O $ $ e.e.e.e.e.e.e.e.e.e.e.e.e.e.e.e.e.e.e.e.e.e.e.e.e.e.e.e.e.e.",
"e.e.e.e.e.e.e.e.e.e.e.e.e.e.e.e.e.e.e.e.e.e.e.e.e.>.-.8.9.8.z $ $ $ e.e.e.e.e.e.e.e.e.e.e.e.e.e.e.e.e.e.e.e.e.e.e.e.e.e.e.e.e.e.",
"e.e.e.e.e.e.e.e.e.e.e.e.e.e.e.e.e.e.e.e.e.e.e.e.e.e.e.<.9.w.B X X O e.e.e.e.e.e.e.e.e.e.e.e.e.e.e.e.e.e.e.e.e.e.e.e.e.e.e.e.e.e.",
"e.e.e.e.e.e.e.e.e.e.e.e.e.e.e.e.e.e.e.e.e.e.e.e.e.e.e.e.e.w.B X e.e.e.e.e.e.e.e.e.e.e.e.e.e.e.e.e.e.e.e.e.e.e.e.e.e.e.e.e.e.e.e.",
"e.e.e.e.e.e.e.e.e.e.e.e.e.e.e.e.e.e.e.e.e.e.e.e.e.e.e.e.e.e.e.e.e.e.e.e.e.e.e.e.e.e.e.e.e.e.e.e.e.e.e.e.e.e.e.e.e.e.e.e.e.e.e.e.",
"e.e.e.e.e.e.e.e.e.e.e.e.e.e.e.e.e.e.e.e.e.e.e.e.e.e.e.e.e.e.e.e.e.e.e.e.e.e.e.e.e.e.e.e.e.e.e.e.e.e.e.e.e.e.e.e.e.e.e.e.e.e.e.e.",
"e.e.e.e.e.e.e.e.e.e.e.e.e.e.e.e.e.e.e.e.e.e.e.e.e.e.e.e.e.e.e.e.e.e.e.e.e.e.e.e.e.e.e.e.e.e.e.e.e.e.e.e.e.e.e.e.e.e.e.e.e.e.e.e.",
"e.e.e.e.e.e.e.e.e.e.e.e.e.e.e.e.e.e.e.e.e.e.e.e.e.e.e.e.e.e.e.e.e.e.e.e.e.e.e.e.e.e.e.e.e.e.e.e.e.e.e.e.e.e.e.e.e.e.e.e.e.e.e.e."
};
