/* XPM */
static char *_b6467682706484ee7dcab6104d326cerHgqORIBt1bSUsYW[] = {
/* columns rows colors chars-per-pixel */
"64 64 143 2 ",
"   c None",
".  c #EE3607",
"X  c #EF3907",
"o  c #EC3608",
"O  c #EE3B08",
"+  c #F03707",
"@  c #F03A07",
"#  c #F13E08",
"$  c #F34309",
"%  c #F64C0A",
"&  c #F84E0A",
"*  c #F7520B",
"=  c #F9540A",
"-  c #F7590C",
";  c #FA5C0C",
":  c #FB630D",
">  c #FC6A0E",
",  c #FD740F",
"<  c #FE780F",
"1  c #FB6D10",
"2  c #FC7511",
"3  c #FD7C11",
"4  c #FC8014",
"5  c #FC8214",
"6  c #FC8315",
"7  c #FE8314",
"8  c #FE8315",
"9  c #FC8316",
"0  c #FD8414",
"q  c #FD8415",
"w  c #FE8414",
"e  c #FF8414",
"r  c #FE8514",
"t  c #FE8515",
"y  c #FE8614",
"u  c #FE8714",
"i  c #FE8212",
"p  c #FE8914",
"a  c #FE8915",
"s  c #FF8B15",
"d  c #FD8816",
"f  c #FD8916",
"g  c #FD8A17",
"h  c #FD8B17",
"j  c #FE8A16",
"k  c #FE8B16",
"l  c #FE8B17",
"z  c #FE8C16",
"x  c #FE8D16",
"c  c #FE8C17",
"v  c #FF8C17",
"b  c #FE8D17",
"n  c #FF8D17",
"m  c #FE8E17",
"M  c #FE8F17",
"N  c #FE8C15",
"B  c #FD8A19",
"V  c #FC8B19",
"C  c #FD8D18",
"Z  c #FD8D19",
"A  c #FE8C18",
"S  c #FE8D18",
"D  c #FE8C19",
"F  c #FE8D19",
"G  c #FE8F18",
"H  c #FE8D1A",
"J  c #FD8F1A",
"K  c #FD8B18",
"L  c #FF9216",
"P  c #FE9018",
"I  c #FE9218",
"U  c #FD901B",
"Y  c #FD911B",
"T  c #FD921A",
"R  c #FD921B",
"E  c #FD941B",
"W  c #FE951A",
"Q  c #FD931C",
"!  c #FD951C",
"~  c #FD951D",
"^  c #FD971D",
"/  c #FE971C",
"(  c #FE9419",
")  c #FD981D",
"_  c #FE991C",
"`  c #FE9A1D",
"'  c #FE991E",
"]  c #FE9B1F",
"[  c #FD9C1F",
"{  c #FE9C1E",
"}  c #FE9E1F",
"|  c #FE9B1B",
" . c #FEA21E",
".. c #FD9D20",
"X. c #FE9D20",
"o. c #FE9E20",
"O. c #FE9F21",
"+. c #FE9F21",
"@. c #FEA021",
"#. c #FEA121",
"$. c #FEA122",
"%. c #FEA223",
"&. c #FEA423",
"*. c #FEA624",
"=. c #FEA723",
"-. c #FFAA22",
";. c #FEAB23",
":. c #FEAC23",
">. c #FFAC23",
",. c #FEA825",
"<. c #FFAB27",
"1. c #FFAC24",
"2. c #FEB027",
"3. c #FFB126",
"4. c #FEB229",
"5. c #FFB52A",
"6. c #FFB72C",
"7. c #FFB72D",
"8. c #FFB42A",
"9. c #FEB92D",
"0. c #FEB92F",
"q. c #FFBB2E",
"w. c #FFBB2F",
"e. c #FFBA2D",
"r. c #FFBB30",
"t. c #FFBC31",
"y. c #FEBD31",
"u. c #FFBD31",
"i. c #FFBE31",
"p. c #FFBD32",
"a. c #FFBF32",
"s. c #FFBF33",
"d. c #FFBE32",
"f. c #FFC032",
"g. c #FFC033",
"h. c #FFC034",
"j. c #FFC134",
"k. c #FFC234",
"l. c #FFC538",
"z. c #FFD447",
"x. c #FFD548",
"c. c #FFDA4D",
"v. c #FFDC50",
/* pixels */
"                                                                                                                                ",
"                                                                                                                                ",
"                                                                                                                                ",
"                                                                                                                                ",
"                                                                                                                                ",
"                                                                                                                                ",
"                                                                                                                                ",
"                                                                                                                                ",
"                                                                                                                                ",
"                                                                                                                                ",
"                                                                                                                                ",
"                                                                                                                                ",
"                                                                                                                                ",
"                                                                                                                                ",
"                                                                                                                                ",
"                                                                                                                                ",
"                                                                                                C C                             ",
"                                                                                                C C                             ",
"                                                                                            C C C C                             ",
"                                                                                            M M M f                             ",
"                                            # #                                 * ; q M M M M M                                 ",
"                                            # #                                 - : u f q q f f                                 ",
"                                    o o O # $ $ # # O O O # O #             * - 3 5 f q > >                                     ",
"                                    o o # $ $ $ $ $ # # $ $ # #             - : 5 u 5 3 > >                                     ",
"                                o o O O $ $ * - - * $ $ * * $ # # # # $ $ * 2 5 u 5 > >                                         ",
"                                O O # $ $ % - ; : : % % : ; % $ $ $ $ $ * - 3 u 5 3 > >                                         ",
"                            O O O $ * - ; ; : > q 6 : : 6 6 : ; * * * - 3 3 u 5 > :             q 6                             ",
"                            O O $ % - : > 1 1 2 C C 2 2 f f > > ; ; ; : 5 u 3 3 > ;             q 6                             ",
"                            O # * - : 1 V T Q / ` / T T E T f f q 5 5 5 u 5 : :             6 q q 5                             ",
"                            # $ - : 2 3 / } O.O.@.@.@.O.} ` T T T C f u 5 3 ; -             5 5 3 3                             ",
"                        O O % - : 1 V / O.@.@.*.9.i.i.9.9.4./ E >.-.M u , > * &         5 5 5 3 > :                             ",
"                        O # * ; > 2 T ` &.*.<.<.i.j.f.f.i.6.} ` >.-.M q 2 > - *         5 5 3 2 : ;                             ",
"                        O $ * : 6 C ` @.6.r.i.i.i.j.i.i.i.9.5.3.` T M f u 3 ; - - ; 3 5 3 3 : ;                                 ",
"                        # $ - > V / O.*.9.i.i.i.j.j.i.i.i.q.9.5.` E M f q 5 : ; ; : 3 3 , , ; -                                 ",
"                    o o $ % 2 q T ` 4.9.i.i.i.j.z.z.j.i.q.9.9.5.3.-.L f u 5 < , , < 3 , ; -                                     ",
"                    o o $ % 3 C / O.6.r.i.i.j.l.c.c.l.i.9.9.4.3.<.&.M p 5 < , , , , , > * &                                     ",
"                    o X % - 6 T <.4.9.r.i.s.z.c.v.c.c.z.i.5.} E L L f 5 > : ; ; ; - $ $ # $                                     ",
"                    o X % ; 6 T <.6.9.r.j.l.c.c.c.c.c.c.f.6. .W L M 5 < > : - - - * # # # #                                     ",
"                    O O % ; 5 T <.5.9.i.z.c.c.v.v.c.c.c.f.q.6.3.E p > : - - * & $ # # #                                         ",
"                    O # % - 3 f &.4.9.i.c.c.v.v.v.c.c.z.i.9.5.3.W p > : - * & % # @ @ @                                         ",
"                        $ % : > M ` 4.i.c.c.c.c.c.c.k.i.q.5.} W L f > ; * % # @ @ @                                             ",
"                        # $ ; > f ` 4.i.x.c.c.c.c.z.f.q.6.3.W E M 5 : - % $ @ @ + @                                             ",
"                        # $ - > f E 4.9.i.f.j.j.j.j.q.6. .| E M , > - & # @ o o                                                 ",
"                        # $ - : 5 T <.4.6.9.9.9.f.f.6.3.| L M u > ; & $ @ o o @                                                 ",
"                            $ % : > M W -.>.3.3.q.9. .| W M , > - & # @ o o                                                     ",
"                            $ $ - : 5 M |  .-.>.6.5.| W L u > : % $ @ o o o                                                     ",
"                                $ % : > , 2 M E W W L M , > - * # X o o                                                         ",
"                                # $ - - - : 5 p N M f u > : * % X o o o                                                         ",
"                                    # # # $ ; : : : ; - * % # X o o                                                             ",
"                                    X X @ # - - - - * & % $ X o o o                                                             ",
"                                            % % % &                                                                             ",
"                                            $ $ $                                                                               ",
"                                                                                                                                ",
"                                                                                                                                ",
"                                                                                                                                ",
"                                                                                                                                ",
"                                                                                                                                ",
"                                                                                                                                ",
"                                                                                                                                ",
"                                                                                                                                ",
"                                                                                                                                ",
"                                                                                                                                ",
"                                                                                                                                ",
"                                                                                                                                "
};
