/* XPM */
static char *a0e5e030f08a494ae5fe1e6b417791bf1ajlKyUb6SHwXBCs[] = {
/* columns rows colors chars-per-pixel */
"64 64 225 2 ",
"   c None",
".  c #5F1406",
"X  c #5F1709",
"o  c #5F1809",
"O  c #611606",
"+  c #6C1907",
"@  c #621609",
"#  c #621909",
"$  c #6B1908",
"%  c #691806",
"&  c #791704",
"*  c #741907",
"=  c #7C1A06",
"-  c #731A08",
";  c #791B09",
":  c #721706",
">  c #6B230A",
",  c #6A2A09",
"<  c #652709",
"1  c #742C0A",
"2  c #7A2D09",
"3  c #75210C",
"4  c #663D0B",
"5  c #6B3E0A",
"6  c #7D330B",
"7  c #733A09",
"8  c #7A390A",
"9  c #773A08",
"0  c #6A2414",
"q  c #6A2B14",
"w  c #772918",
"e  c #6E3E1F",
"r  c #743319",
"t  c #513B23",
"y  c #773625",
"u  c #793A26",
"i  c #6A3C26",
"p  c #6C410B",
"a  c #67400E",
"s  c #754207",
"d  c #7C4607",
"f  c #744309",
"g  c #794609",
"h  c #7D4A0B",
"j  c #7A4516",
"k  c #6A4210",
"l  c #5D4A31",
"z  c #764926",
"x  c #785426",
"c  c #7E5933",
"v  c #7B674F",
"b  c #851600",
"n  c #8D1700",
"m  c #841B06",
"M  c #8C1B05",
"N  c #811D08",
"B  c #901600",
"V  c #931A02",
"C  c #9B1B02",
"Z  c #9B1700",
"A  c #A31C01",
"S  c #AC1D01",
"D  c #B41E00",
"F  c #BB1F00",
"G  c #8A260B",
"H  c #982707",
"J  c #8B3205",
"K  c #83350C",
"L  c #823B0B",
"P  c #8A3909",
"I  c #983506",
"U  c #8B2813",
"Y  c #9C2911",
"T  c #88331F",
"R  c #9C3B16",
"E  c #AD2104",
"W  c #A52606",
"Q  c #B42103",
"!  c #BC2102",
"~  c #B92A05",
"^  c #A63507",
"/  c #BA3203",
"(  c #B53204",
")  c #AA3411",
"_  c #B9371B",
"`  c #A32D14",
"'  c #823921",
"]  c #9C3C27",
"[  c #983520",
"{  c #A53922",
"}  c #C11F00",
"|  c #C42101",
" . c #CC2201",
".. c #C72907",
"X. c #D32301",
"o. c #DB2501",
"O. c #D32A03",
"+. c #DB2A05",
"@. c #CC3604",
"#. c #D93404",
"$. c #C43214",
"%. c #E62701",
"&. c #E92701",
"*. c #E42901",
"=. c #ED2801",
"-. c #F12700",
";. c #F32800",
":. c #FD2A00",
">. c #E83704",
",. c #824A07",
"<. c #844C08",
"1. c #8B4F08",
"2. c #88440A",
"3. c #99480B",
"4. c #8D520A",
"5. c #945407",
"6. c #93550B",
"7. c #9E540C",
"8. c #9D5909",
"9. c #9A570A",
"0. c #85441A",
"q. c #89561B",
"w. c #9A5818",
"e. c #A54406",
"r. c #B54307",
"t. c #A45D07",
"y. c #A75B0B",
"u. c #BB560A",
"i. c #AE4E10",
"p. c #A35214",
"a. c #AA620D",
"s. c #AF6206",
"d. c #B3660D",
"f. c #BA6B0C",
"g. c #B6690D",
"h. c #A46211",
"j. c #AD6815",
"k. c #B76813",
"l. c #884924",
"z. c #88562B",
"x. c #874B39",
"c. c #855A39",
"v. c #955C36",
"b. c #9A5123",
"n. c #986528",
"m. c #86653B",
"M. c #99643E",
"N. c #A86923",
"B. c #B67028",
"V. c #CB4006",
"C. c #C26F0C",
"Z. c #CC7717",
"A. c #D17918",
"S. c #CB4D2F",
"D. c #EC5430",
"F. c #C17E2D",
"G. c #985945",
"H. c #8F5644",
"J. c #A75540",
"K. c #97614F",
"L. c #986647",
"P. c #9B754D",
"I. c #9C6856",
"U. c #9A6453",
"Y. c #9E7B50",
"T. c #846C51",
"R. c #AE714E",
"E. c #AF6A55",
"W. c #B06550",
"Q. c #A27E53",
"!. c #A17E5F",
"~. c #BB725C",
"^. c #8E7565",
"/. c #AA7B67",
"(. c #B57E65",
"). c #CF6950",
"_. c #DE6C4C",
"`. c #E76A49",
"'. c #EA745B",
"]. c #C87D66",
"[. c #DA841A",
"{. c #D68017",
"}. c #E4891A",
"|. c #F6941A",
" X c #D08426",
".X c #E18D28",
"XX c #F29522",
"oX c #E79937",
"OX c #F29B34",
"+X c #FDA73E",
"@X c #B98A59",
"#X c #A8835C",
"$X c #AD8878",
"%X c #B9936E",
"&X c #C28149",
"*X c #EBA553",
"=X c #F5A745",
"-X c #CF9561",
";X c #C48B75",
":X c #C08F7B",
">X c #C4967A",
",X c #C8866D",
"<X c #F59174",
"1X c #CCA678",
"2X c #F0B063",
"3X c #F4BF7E",
"4X c #E9B06A",
"5X c #B49C90",
"6X c #C59B87",
"7X c #DD9881",
"8X c #D4AD99",
"9X c #CDB59B",
"0X c #D3AD97",
"qX c #D6B8A6",
"wX c #DDC2AE",
"eX c #E9CCB5",
"rX c #EBD4BC",
"tX c #F1D9BF",
"yX c #ECD6C4",
"uX c #F2DECA",
"iX c #EEDFD7",
"pX c #F5E3CD",
"aX c #F8E6D0",
"sX c #F5E7D7",
"dX c #FDF8F2",
/* pixels */
"                                                                                                                                ",
"                                                                                                                                ",
"                                                                                                                                ",
"                                                  # #                                                                           ",
"                                          0 #     # #                             # #                                           ",
"                                # O       H.K.. # ; $                           # % #                                           ",
"                                x.u O     I.qX0 % V * o # #                   # * m #                                           ",
"                                I.0X0     I.uXx.O $ % = C * #                 % C C %                                           ",
"                                x.yXK.    U.aX/.O N | =.&.C # #             # M D C %                                           ",
"                                u rX6X# . U.aX6XN &.:.:.%.C # #           # * D F C o                                           ",
"                                q >XJ.+ O K.aXqXU ;.:.:.*.C #             # A F  .E #                                           ",
"                                # U Z D A G.pXwXw o.:.=.o.V #             $ | F o.*.; o                                         ",
"                                o M ! *. .G.pXeXT A %.&.X.m #           o M X.F *.:.! % #                                       ",
"                            # % ; C o.&.} H.pX:XM B X.%.| m %           # Q o.| *.X.F ; # #                                     ",
"                          # M |  .A *.&.D T E.U S Z  . .D ; = $         % X.&.*. .D F = o                                       ",
"                          $ X.:.=.X.%.=.*.S B A  . .X.D S * A *         $  .=.o.F  .X.-                                         ",
"                          # E :.:.=.%.*.:. .Z F *.&.=.| D = C ; #       $ D %.o. .=.X.$                                         ",
"                          . * | &.-.F D X. .A A o.&.=.*.D M * ; # # #   $ A o.o.X.%.| #                                         ",
"                          u I.G F X.n M G Z o.A S %.&.=.F S - # # #     % C  .o.F F A #                                         ",
"                        # %XtXE.A D [ ;X8X] F X.C X.&.-.| o.o.m #       o m | X.F F B #                                         ",
"                        y 0XE.;XA S.(.G.rX6XA %.C | %.-.| o.:.| $         ; F D A V m % #                                       ",
"                        x.9X^.8XS.`.v $XeXeXY *.A F %.=.o.*.&.! $         * F C % # # # # #                                     ",
"                # # #   x.9Xt $X<X_.l 5XsXuX{ %.S F %.&.%.&.*.A %         + D V @         #   # % $ $ #                         ",
"    # #       # M ! $ o r qXT.5X'.`.l i iXsX{ &.| | %.%.%.%.X.V #         $ ! C %           # M | X. .M #                       ",
"  # $ - # # o $ o.o.Q ; # /.yXqX$.D.!./.dXyX` %. . .&.%.%.o.F = #         * X.A #         # V =.:.=.-.=.M #                     ",
"  % ! X.; ; M E %.A A  .* ; ] [ F +.,XsXdX;XS *.} o.&.%.&. .D *         o m &.C o       # M %.:.:.;.&.:.%.=                     ",
"  N  .*.*.&.;.;. .A n | ! b n n  .o.` ~.W.H X.o. .%.%.%.&. .A $ o #   # * Q -.M       # M o.=.:.:.:.=.=.:.Q %                   ",
"o V S D ;.-.=.%.A C V S &.F D D  .%.X.A Z | %.*.*.%.%.%.&.X.V ; = $ % M  .;.&.m     # N %.-.&.=.:.:.-.%.&.o.;                   ",
"# * n F &.%.%.%.S n C A %.o.F  .| o.&.%.*.%.%.%.%.%.%.%.&.o.m | -.o.! | %.:.*.M   o $ X.:.:.&.%.=.:.-.%.%.&.A                   ",
"  % n | &.%.%.%.D n V S %.%.|  .o.o.%.%.%.%.%.%.%.%.%.%.%.*.V ! ;.:.:.%.X. .| S m = ! =.:.:.-.%.%.-.&.*.o.o.| $                 ",
"  % S o.%.%.&.%.| B B F &.&.o.X.&.%.%.%.%.&.X.S o.&.%.%.%.%.D ! &.%. .| | | F D D D o.&.-.:.;.%.%.*.X. . .! ! ;                 ",
"  % ! &.%.%.%.&.o.A n | &.%.%.%.%.%.%.%.%.%.S b D %.%.%.%.%.F  .%.X.o.=.-.-.*. .F F X.&.%.;.-.%.*.X. . .A $ ; -                 ",
"  % | &.%.%.%.%.%.| D o.&.%.%.%.%.%.%.%.&.o.B n n  .&.%.%.*.F o.&.%.:.:.:.:.:.=.X.} o.&.%.&.&.*.X. . .E $ # o #                 ",
"  % ! &.%.%.%.%.&.%.*.%.%.%.&.&.%.%.%.%.&.| n A n V X.&.&.o.F o.&.%.-.-.:.:.:.:.=. . .%.%.%.%.o. . .! * #                       ",
"  $ | &.%.%.%.%.&.%.%.%.%.%.%.%.%.%.%.%.*.A C D A b F &.&.X.F *.o.| F F X.-.:.-.&.o.| | *.&.*. . . .M #                         ",
"  $  .&.%.%.%.%.&.%.%.%.%.&.&.&.%.%.%.&.X.B S  .| A  .&.%.} | X.F } X.X.| W V = = C | | o.%.X. . .Q +                           ",
"  - Q F *.&.%.%.%.%.%.&.%.X.X.o.&.&.%.&.F B F *.*.o.*.%.X.F  .F | -.:.:.O.8 8 K K $ M ` ..%.X. . .V o                           ",
"  $ C n D *.&.%.%.&.%.X.S n n V F o.*.X.C A X.%.%.&.X.X.| |  .F X.%.;.:.( 6.[.}.OXR.$ z l.O. . .| ;                             ",
"  # & b b S *.&.&.o.F B n B V V n B C B n F *.%.%.*.|  . . . .F F F  .+.P h.}.|.=X*X2 x.P.R  . .Q $                             ",
"  # + n V b A F F C n B S F F D S Z B n Z X.&.%.%.X.A A | | | F F  .F I 5 g k.XX+X|.3.y #X0.|  .M @                             ",
"    # n X.Z b b b n D  .o.*.*.o. .| D D | %.%.&.o.F ; ; F |  .| &.&.E 9 p 5 f N.4XXXk.0 L.z C ! $                               ",
"      m *.o.S C S X.%.&.%.%.*.*.%.%.o.o.%.&.%.X.F C % C  . .| X.:.=.J g <.1.d 5 N.}.A.1 x z 3 C %                               ",
"      m o.&.%.*.*.o.o. .| | ! ! !  .X. .X.X.| F A + $ !  . .F %.:.O.8 <.<.5.5.d g Z.Z.1 c c.q # #                               ",
"      $ C  .X. .F A V M C C M M * = V C S S S V $ # $ E  . .F =.:./ f <.s s <.5.,.h.3.q Q.Y.e #                                 ",
"      # # = D D m % # # $ ; m M ; # # % $ * $ # > v.r ; |  .} =.:.( g d n.j.g t.8.4.L l.1X@Xz -                                 ",
"          # ; & # 1 2.7 J %.;.&.Q %   # # # # @ j n.M.# M ! D %.:.I g d  X.X4.5.t.,., L.1XQ.0.M #                               ",
"          O ' L.j d t.5.7 ( %.&.C                 q.n.r # ; M  .&.I f 6.[.oXj.<.t.d q @X%Xm.) S $                               ",
"          % &X3XN.s 8.t.,.5 P Q -                   q.q.r # $ S X.P 5 h.}.2XF.,.t.8 u Q.m.l.O.D *                               ",
"          # B..Xh.s 4.5.4.,.7 > #                 p 6.a.w.L $ D D J p 6.[.*XB.d 1., e x x i.@.! M @                             ",
"            6 P > 9 s g <.4.9 #                   f 8.t.a.s.2  .X.J f s <.4.g g <.> 0.w.h.a.y.r.C %                             ",
"            @ @ @ > q.f s 1.1 @                 8 I e.9.8.s.6 ! :.^ f ,.g 5 g f 7 > 7.f.f.a.d.a.^ $                             ",
"                  $ >X@Xs 9 #                 9 ~ &. .~ 3.t.2.M =.( p <.g h. Xh., 1 a.f.d.f.C.g.y.2                             ",
"                  $ -XoX2.#                 5 W ;.o.o.-./ 9.t.1 M W 7 g <.{.=XN.# K y.a.a.g.f.C.d.L                             ",
"                  # p.p.> @                 J %.:. .&.:.o.e.t.t.1 $ , 5 6.}.*Xb.: O.>.@.r.u.u.f.f.1 o                           ",
"                    % #                   z.~ -.o.X.:.:.o./ 8.a.6.7 < # 6 Z.4X' S :.:. .*.:.>.d.f.6 @                           ",
"                                          l._ ..| X.;.:.X.~ 7.h.h 5     @ 6 w.3  .:.&.| -.:.-.u.j.p.>                           ",
"                                          p >X).D ! ..X...I ,.h p         @ # M *.:.o. .:.:.-.V.h.y.1                           ",
"                                          k m.v.W S.7X) 8 p a 5             V | &.:.X.X.:.:.=.#.a.7.>                           ",
"                                            4 4 7 z.Y.j                     H |  .&. .o.:.=.&.#.y.2                             ",
"                                                    4                       ] D _ $.} o.| C } #.P #                             ",
"                                                                            0 n ].~.A } { >XY H >                               ",
"                                                                                y y * & ' 6Xr .                                 ",
"                                                                                        # 0 #                                   ",
"                                                                                                                                "
};
