/* XPM */
static char *ac9b35f60da64496da30400e47533debZRRORB6TyPWHR9rg[] = {
/* columns rows colors chars-per-pixel */
"64 64 222 2 ",
"   c None",
".  c #5E1406",
"X  c #5F1709",
"o  c #5F1809",
"O  c #611606",
"+  c #611609",
"@  c #621809",
"#  c #6B1908",
"$  c #6A1806",
"%  c #791704",
"&  c #741907",
"*  c #7C1A06",
"=  c #731A08",
"-  c #791B09",
";  c #721706",
":  c #6B230A",
">  c #6A2A09",
",  c #652709",
"<  c #742C0A",
"1  c #7A2D09",
"2  c #75210C",
"3  c #663D0A",
"4  c #6B3E09",
"5  c #7D330B",
"6  c #733A09",
"7  c #7A390A",
"8  c #773A08",
"9  c #6A2414",
"0  c #6A2A14",
"q  c #772918",
"w  c #6E3E1F",
"e  c #743319",
"r  c #513B23",
"t  c #773625",
"y  c #7A3A29",
"u  c #783A23",
"i  c #6A3C26",
"p  c #6B410C",
"a  c #754207",
"s  c #7C4607",
"d  c #744309",
"f  c #794609",
"g  c #7D4A0B",
"h  c #7A4516",
"j  c #5D4A31",
"k  c #764926",
"l  c #785426",
"z  c #7E5933",
"x  c #7B674F",
"c  c #851600",
"v  c #8D1700",
"b  c #841B06",
"n  c #8C1B05",
"m  c #811D08",
"M  c #901600",
"N  c #931A02",
"B  c #9B1B02",
"V  c #9B1700",
"C  c #A31C01",
"Z  c #AC1D01",
"A  c #B41E00",
"S  c #BB1F00",
"D  c #8A260B",
"F  c #982707",
"G  c #8B3205",
"H  c #83350C",
"J  c #823B0B",
"K  c #8A3909",
"L  c #983506",
"P  c #8B2813",
"I  c #9C2911",
"U  c #88331F",
"Y  c #9C3B16",
"T  c #AD2104",
"R  c #A52606",
"E  c #B42103",
"W  c #BC2102",
"Q  c #B92A05",
"!  c #A63507",
"~  c #BA3203",
"^  c #B53204",
"/  c #AA3411",
"(  c #B9371B",
")  c #A32D14",
"_  c #823921",
"`  c #9C3C27",
"'  c #983520",
"]  c #A53922",
"[  c #C11F00",
"{  c #C42101",
"}  c #CC2201",
"|  c #C72907",
" . c #D32301",
".. c #DB2501",
"X. c #D32A03",
"o. c #DB2A05",
"O. c #CC3604",
"+. c #D93404",
"@. c #C43214",
"#. c #E62701",
"$. c #E92701",
"%. c #E42901",
"&. c #ED2801",
"*. c #F12700",
"=. c #F32800",
"-. c #FD2A00",
";. c #E83704",
":. c #824A07",
">. c #844C08",
",. c #8B4F08",
"<. c #88440A",
"1. c #99480B",
"2. c #8D520A",
"3. c #945407",
"4. c #93550B",
"5. c #9E540C",
"6. c #9D5909",
"7. c #9A570A",
"8. c #85441A",
"9. c #89561B",
"0. c #9A5818",
"q. c #A54406",
"w. c #B54307",
"e. c #A45D07",
"r. c #A75B0B",
"t. c #BB560A",
"y. c #AE4E10",
"u. c #A35214",
"i. c #AA620D",
"p. c #AF6206",
"a. c #B3660D",
"s. c #BA6B0C",
"d. c #B6690D",
"f. c #A46211",
"g. c #AD6815",
"h. c #B76813",
"j. c #884924",
"k. c #88562B",
"l. c #874B38",
"z. c #815F36",
"x. c #955C36",
"c. c #9A5123",
"v. c #986528",
"b. c #86653B",
"n. c #99643E",
"m. c #A86923",
"M. c #B67028",
"N. c #CB4006",
"B. c #C26F0C",
"V. c #CC7717",
"C. c #D17918",
"Z. c #CB4D2F",
"A. c #EC5430",
"S. c #C17E2D",
"D. c #8E5442",
"F. c #985945",
"G. c #A75540",
"H. c #97614F",
"J. c #986647",
"K. c #9B754D",
"L. c #9C6856",
"P. c #9A6453",
"I. c #9E7B50",
"U. c #846C51",
"Y. c #AE714E",
"T. c #AF6A55",
"R. c #B06550",
"E. c #A27E53",
"W. c #A17E5F",
"Q. c #BB725C",
"!. c #8E7565",
"~. c #AA7B67",
"^. c #B57E65",
"/. c #CF6950",
"(. c #DE6C4C",
"). c #E76A49",
"_. c #EA745B",
"`. c #C87D66",
"'. c #DA841A",
"]. c #D68017",
"[. c #E4891A",
"{. c #F6941A",
"}. c #D08426",
"|. c #E18D28",
" X c #F29522",
".X c #E79937",
"XX c #F29B34",
"oX c #FDA73E",
"OX c #B98A59",
"+X c #A8835C",
"@X c #AD8878",
"#X c #B9936E",
"$X c #C28149",
"%X c #EBA553",
"&X c #F5A745",
"*X c #C48B75",
"=X c #C08F7B",
"-X c #C4967A",
";X c #CC8E67",
":X c #F59174",
">X c #CCA678",
",X c #F0B063",
"<X c #F4BF7E",
"1X c #E9B06A",
"2X c #B49C90",
"3X c #C59B87",
"4X c #DD9881",
"5X c #D4AD99",
"6X c #CDB59B",
"7X c #D3AD97",
"8X c #D6B8A6",
"9X c #DDC2AE",
"0X c #E9CCB5",
"qX c #EBD4BC",
"wX c #F1D9BF",
"eX c #ECD6C4",
"rX c #F2DECA",
"tX c #EEDFD7",
"yX c #F5E3CD",
"uX c #F8E6D0",
"iX c #F5E7D7",
"pX c #FDF8F2",
/* pixels */
"                                                                                                                                ",
"                                                                                                                                ",
"                                                                                                                                ",
"                                                                          @ @                                                   ",
"                                          @ @                             @ @     @ 9                                           ",
"                                          @ @ @                           # % @ X H.D.      O @                                 ",
"                                          @ b ; @                   @ @ o ; N $ 9 8XL.    O y l.                                ",
"                                          @ B B @                 @ & B * @ # O l.rXL.    9 7XL.                                ",
"                                          @ B A n @             @ @ N $.&.{ b O ~.uXP.    H.eXD.                                ",
"                                          @ B S A & @           @ @ N #.-.-.$.m 3XuXP.. @ 3XqXy                                 ",
"                                          @ T } S C @             @ N %.-.-.=.P 8XuXH.O # G.=X0                                 ",
"                                        o - %...S { #             @ N ..&.-...q 9XyXF.C A B P @                                 ",
"                                      @ @ W -.%.S  .n X           @ b  .$.#.B U 0XyXF.} %.S v X                                 ",
"                                    @ @ % S  .%.{ ..E @           @ b { #. .v n =XyXF.[ $...B % @ @                             ",
"                                      @ * S A } %.$. .@         # * * A } } B Z P T.' A $.%.C } { n @                           ",
"                                        =  .} S ..&.} #         & C ; Z A  .} } C M Z %.&.#. .&.-. .#                           ",
"                                        #  .&.} ..#.A #       @ % B * A { &.$.%.S B } -.%.#.&.-.-.T @                           ",
"                                        @ { #. .....C #   @ @ @ % & n A %.&.#...C C }  .A S *.$.{ & X                           ",
"                                        @ C S S ..} B @     @ @ @ = Z S &.$.#.Z C ..B D n v  .S D L.y                           ",
"                                        @ N S S  .{ b @       @ b ....{ *.$. .B  .S ` 5X*X' A C T.eX#X@                         ",
"                                      @ @ b N C A S %         # { -...{ *.#.{ B #.C 3XqXF.^.Z.C *XT.7Xt                         ",
"                                    @ @ @ @ @ @ N S ;         # W $... .&.#.S C %.I 0X0X@Xx ).Z.5X!.6Xl.                        ",
"                        @ # # @ @   @         @ N A #         @ C %.$.#.$.#.S Z #.] rXiX2Xj (.:X@Xr 6Xl.  @ @ @                 ",
"                      @ n }  .{ n @           @ B W #         @ N  .#.#.#.#.{ { $.] iXtXi j )._.2XU.8Xe X # W n @       @ @     ",
"                    @ n &.*.&.-.&.N @         @ C  .&         @ * S ..#.#.$.} } #.) eXpX~.W.A.@.8XeX~.@ - E ....# o @ @ = # @   ",
"                    * #.-.$.=.-.-.#.n @       o B $.b o         & A } $.#.$...[ %.Z *XpXiX;Xo.W ' ` - & } C C #.T n = - ..W @   ",
"                  @ E -.&.&.-.-.-.$...n @       n *.E ; @   @ o # C } $.#.#.#.} .. .F R.Q.) ..} v v c W { v C } =.=.$.%.%.} b   ",
"                  % ..$.#.*.-.-.&.#.*.#.b @     * $.=.} n @ # * % N  .$.#.#.$.#.%.#.{ V C  .#.} A A S $.Z N B C #.&.*.=.A Z N o ",
"                  C $.#.#.*.-.&.#.$.-.-. .# o   n %.-.#.{ W ..*.{ b ..$.#.#.#.#.#.#.#.%.#.$...{ } S ..#.C B n Z #.$.#.$.S n ; @ ",
"                # { ....%.$.*.#.#.*.-.-.&.W * b Z { }  .#.-.-.=.W N %.#.#.#.#.#.#.#.#.#.#.#.....} { #.#.Z N n A #.#.#.$.{ v @   ",
"                % W W } }  .%.#.#.=.-.*.$...A A A S { { { } #.$.W A #.#.#.#.$...Z  .$.#.#.#.#.$. . .$.$.S M N { #.#.#.#...Z @   ",
"                = = # C } }  .%.#.*.=.#.$. .S S } %.*.*.&... .#.} S #.#.#.#.#.A c Z #.#.#.#.#.#.#.#.#.$.{ v C ..$.#.#.#.$.W @   ",
"                @ @ @ # T } }  .%.$.$.#.$...[  .&.-.-.-.-.-.#.$...S %.#.#.$.} v v N ..$.#.#.#.#.#.#.#.$...A { #.#.$.$.$.$.{ @   ",
"                      @ & W } } ..#.#.#.#.} } &.-.-.-.-.*.*.#.$...S ..$.$. .N v C v W $.#.#.#.#.#.#.#.#.#.%.#.#.#.#.$.$.$.W @   ",
"                        @ n } } } %.$.%.{ { ..$.*.-.*. .S S { ..%.S  .$.$.S c C A B C %.#.#.#.#.#.#.#.#.#.#.#.#.#.#.#.#.$.{ #   ",
"                          # E } }  .#...{ { B * * N R {  . .[ S  .{ [ #.$.} C { } Z N  .$.#.#.#.$.$.$.#.#.#.#.#.#.#.#.#.$.} #   ",
"                          o N } }  .#.| ) n # H H 7 7 X.-.-.*.{ S } S  .#.%...%.%.S N S $.#.$.$... . .#.$.#.#.#.#.#.$.%.S E =   ",
"                            % { } } X.j.k # Y.XX[.'.4.^ -.=.#. .S } { {  . .$.#.#. .C B  .%...S N v v Z  .#.$.#.#.$.%.A v B #   ",
"                            # E } } Y K.l.1 %X&X{.[.f.K o.} S S S } } } } { %.#.#.%.S v N B N v N N N v N S ..$.$.%.Z c c % @   ",
"                            @ n } { 8.+Xt 1.{.oX Xh.d 4 L S } S S { { { C C  .#.#.$. .B v N B Z A S S Z N v B S S C v N v $ @   ",
"                              # W B k J.9 h. X1Xm.d 4 p 8 T $.$.{ } { S % % W ..$.#.#.{ A A { } ..%.%...} A v c c c B  .n @     ",
"                              @ N 2 k l < C.[.m.4 s ,.>.d G &.-. .{ } } N @ B S  .#.$.#.....#.#.%.%.#.#.$.#. .Z B Z ..%.b       ",
"                              @ @ 0 z.z < V.V.d s 3.3.>.>.8 X.-.#.S } } W # # C S {  . .}  .} W W W { } } ....%.%.#.$...b       ",
"                                @ w I.E.0 1.f.>.3.>.d a >.d ~ -.&.S } } T # @ # N Z Z Z B N * ; n n B B n N C S }  .} B #       ",
"                                = k OX>Xj.J 2.6.e.f g.v.s d ! -.&.[ } { % e x.: @ # ; # @ @ @ = n b - # @ @ @ b A Z * @ @       ",
"                              @ n 8.E.>XJ.> >.e.3.2.|.}.s d L -.#.A W n @ n.v.h + @ @ @ @   @ E $.=.%.G 6 <.< @ % % @           ",
"                              # Z / z.#XOX0 s e.>.g..X'.4.d L $.} n % @ e v.9.                B $.%.! 6 3.e.:.h J._ O           ",
"                              & A X.j.b.E.u 8 e.:.S.,X[.f.4 K  .Z # @ e 9.9.                  = E K 4 >.e.6.f m.<X$X@           ",
"                            @ n W O.y.l l w > ,.s M.%X'.4.p G S A # J 0.i.4.p                 + : 6 >.2.3.2.d f.|.M.@           ",
"                            @ B w.r.i.f.0.8.: >.f f 2.>.d d G ..} 1 p.i.e.6.d                   @ 8 2.>.d a 7 > K 5             ",
"                            # ! i.a.i.d.d.5.: 6 d f 4 d >.d ! -.W 5 p.6.7.q.L 7                 + < ,.d d 9.: + + +             ",
"                            1 r.d.B.d.a.s.i.< > f.}.f.f >.p ^ &.n <.e.1.^ } $.Q 7                 # 7 a OX-X#                   ",
"                            J a.B.s.d.i.i.r.H @ m.&X].>.f 6 R n < e.7.~ *.....=.R 3                 @ <..X;X#                   ",
"                          + < d.s.t.t.w.O.;.X.; c.%X[.4.4 > # < e.e.q.%.-.$.} -.%.G                 + : u.u.@                   ",
"                          + 5 d.a.;.-.%.} -.-.Z _ 1XV.5 @ , 6 4.i.6.~ ..-.-. ...*.Q k.                  @ @                     ",
"                          : u.g.t.*.-.*.{ $.-.} 2 0.5 +     p g f.5.W  .-.=. .[ | ( j.                                          ",
"                          < r.f.N.*.-.-.} ..-.%.n + +         p g :.L |  .| W A /.-Xp                                           ",
"                          : 5.i.+.&.-.-. . .-.$.{ N             3 p p 7 / 4XZ.R x.b.p                                           ",
"                            1 r.+.$.&.-...} $.} { F                     h K.k.6 3 3                                             ",
"                            @ K +.[ B { ..[ @.( A `                       3                                                     ",
"                              : F I -X] [ C Q.`.n 9                                                                             ",
"                                X e 3X_ % ; t t                                                                                 ",
"                                  @ 9 @                                                                                         ",
"                                                                                                                                "
};
