/* XPM */
static char *chests_open1754950445[] = {
/* columns rows colors chars-per-pixel */
"64 64 228 2 ",
"   c #3B2A1D",
".  c #382718",
"X  c #3C2D21",
"o  c #462B19",
"O  c #4B311B",
"+  c #5A3A18",
"@  c #423225",
"#  c #46362A",
"$  c #4A3728",
"%  c #533925",
"&  c #573D2B",
"*  c #523927",
"=  c #4D3D31",
"-  c #402F22",
";  c #643613",
":  c #6A4518",
">  c #744A14",
",  c #5A412F",
"<  c #5E4024",
"1  c #5C4533",
"2  c #544539",
"3  c #4F4136",
"4  c #644D3D",
"5  c #624835",
"6  c #715230",
"7  c #786038",
"8  c #5A4C41",
"9  c #5F5146",
"0  c #62554A",
"q  c #6D5A4A",
"w  c #685446",
"e  c #6A5D52",
"r  c #725D4E",
"t  c #6E6257",
"y  c #766559",
"u  c #7A6D63",
"i  c #7F746B",
"p  c #8B3D06",
"a  c #9B3D06",
"s  c #8E4106",
"d  c #924306",
"f  c #9D4206",
"g  c #9B4C07",
"h  c #984907",
"j  c #9E5207",
"k  c #954911",
"l  c #875515",
"z  c #9C5D14",
"x  c #A14606",
"c  c #A54B07",
"v  c #A84E07",
"b  c #A35307",
"n  c #AB5307",
"m  c #AE5807",
"M  c #AD5409",
"N  c #AC5D08",
"B  c #A55A08",
"V  c #B25C07",
"C  c #B25D08",
"Z  c #B9560A",
"A  c #B05711",
"S  c #8D6118",
"D  c #9B6813",
"F  c #AB660B",
"G  c #BA6407",
"H  c #BE6B07",
"J  c #B46309",
"K  c #B86608",
"L  c #BC6C08",
"P  c #B56407",
"I  c #A4720F",
"U  c #BF7109",
"Y  c #BB6B15",
"T  c #BD7717",
"R  c #AF6311",
"E  c #A87821",
"W  c #896637",
"Q  c #C7570A",
"!  c #D25B0C",
"~  c #C36B0A",
"^  c #C8680A",
"/  c #D56A0B",
"(  c #C27409",
")  c #CC760A",
"_  c #C67A09",
"`  c #CA7D09",
"'  c #CD7B07",
"]  c #D3720A",
"[  c #DC760B",
"{  c #D47C0A",
"}  c #DC7C0A",
"|  c #DA7A07",
" . c #D36B13",
".. c #C97813",
"X. c #D87C15",
"o. c #C46412",
"O. c #E07C0A",
"+. c #C37D24",
"@. c #806A59",
"#. c #84756A",
"$. c #8A7D74",
"%. c #B48532",
"&. c #CC830A",
"*. c #CC880B",
"=. c #D48309",
"-. c #DD840A",
";. c #D38C0A",
":. c #DC8D0A",
">. c #DD8207",
",. c #CE950C",
"<. c #D5930B",
"1. c #DC940C",
"2. c #D29B0B",
"3. c #DC9C0C",
"4. c #D79307",
"5. c #CB8517",
"6. c #DB8313",
"7. c #D38917",
"8. c #D69417",
"9. c #E68C07",
"0. c #E2840A",
"q. c #E58B0A",
"w. c #EA8D0C",
"e. c #E48807",
"r. c #E99307",
"t. c #EB9D07",
"y. c #E5930A",
"u. c #E9940A",
"i. c #E69A0B",
"p. c #EB9C0A",
"a. c #E28915",
"s. c #E39412",
"d. c #E89A16",
"f. c #F89E12",
"g. c #F79912",
"h. c #F09D0C",
"j. c #DEA20D",
"k. c #DAAB18",
"l. c #ECA307",
"z. c #E2A30B",
"x. c #EDA30A",
"c. c #E5AA0C",
"v. c #ECAC0C",
"b. c #EEA807",
"n. c #F3A40D",
"m. c #F2AB0B",
"M. c #EDB30C",
"N. c #F4B30A",
"B. c #F4BB0E",
"V. c #EEA413",
"C. c #E9A517",
"Z. c #F4A311",
"A. c #F8A412",
"S. c #F4AC11",
"D. c #F9AC12",
"F. c #F2A81C",
"G. c #EAB413",
"H. c #F3B214",
"J. c #FAB412",
"K. c #FABA12",
"L. c #F4B71B",
"P. c #C98727",
"I. c #D78C26",
"U. c #D5992B",
"Y. c #CE8E32",
"T. c #D49737",
"R. c #CE9038",
"E. c #E29626",
"W. c #DFAE28",
"Q. c #E9A626",
"!. c #F3B728",
"~. c #E5A739",
"^. c #E9B23E",
"/. c #F1B633",
"(. c #F4C50E",
"). c #FDCE09",
"_. c #F7C70C",
"`. c #FDDC0C",
"'. c #FDD40C",
"]. c #FCCD12",
"[. c #FBC412",
"{. c #FDD616",
"}. c #FDE40E",
"|. c #FFED0F",
" X c #FDE216",
".X c #FFEA19",
"XX c #FFF310",
"oX c #FFF11B",
"OX c #FFF00F",
"+X c #F7C22C",
"@X c #F9C629",
"#X c #FCD726",
"$X c #F9C936",
"%X c #FCD837",
"&X c #FFEC25",
"*X c #FFF329",
"=X c #FEEA37",
"-X c #FFF23B",
";X c #9F8353",
":X c #B18C46",
">X c #8B827A",
",X c #938472",
"<X c #A69169",
"1X c #D49A43",
"2X c #DAA546",
"3X c #D8A854",
"4X c #C1A25C",
"5X c #F1BA47",
"6X c #E6B04D",
"7X c #C19B62",
"8X c #D3AF75",
"9X c #F8CD45",
"0X c #FBD748",
"qX c #F4C651",
"wX c #FDD652",
"eX c #FDE240",
"rX c #FFF348",
"tX c #FEE75B",
"yX c #FFF257",
"uX c #F5D161",
"iX c #F1C17E",
"pX c #FDEA63",
"aX c #948B85",
"sX c #9B928A",
"dX c #A19A95",
"fX c #B2A694",
"gX c #D3BFA4",
"hX c None",
/* pixels */
"hXhXhXhXhXhXhXhXhXhXhXhXhXhXhXhXhXhXhXhXhXhXhXhXhXhXhXhXhXhXhXhXhXhXhXhXhXhXhXhXhXhXhXhXhXhXhXhXhXhXhXhXhXhXhXhXhXhXhXhXhXhXhXhX",
"hXhXhXhXhXhXhXhXhXhXhXhXhXhXhXhXhXhXhXhXhXhXhXhXhXhXhXhXhXhXhXhXhXhXhXhXhXhXhXhXhXhXhXhXhXhXhXhXhXhXhXhXhXhXhXhXhXhXhXhXhXhXhXhX",
"hXhXhXhXhXhXhXhXhXhXhXhXhXhXhXhXhXhXhXhXhXhXhXhXhXhXhXhXhXhXhXhXhXhXhXhXhXhXhXhXhXhXhXhXhXhXhXhXhXhXhXhXhXhXhXhXhXhXhXhXhXhXhXhX",
"hXhXhXhXhXhXhXhXhXhXhXhXhXhXhXhXhXhXhXhXhXhXhXhXhXhXhXhXhXhXhXhXhXhXhXhXhXhXhXhXhXhXhXhXhXhXhXhXhXhXhXhXhXhXhXhXhXhXhXhXhXhXhXhX",
"hXhXhXhXhXhXhXhXhXhXhXhXhXhXhXhXhXhXhXhXhXhXhXhXhXhXhXhXhXhXhXhXhXhXhXhXhXhXhXhXhXhXhXhXhXhXhXhXhXhXhXhXhXhXhXhXhXhXhXhXhXhXhXhX",
"hXhXhXhXhXhXhXhXhXhXhXhXhXhXhXhXhXhXhXhXhXhXhXhXhXhXhXhXhXhXhXhXhXhXhXhXhXhXhXhXhXhXhXhXhXhXhXhXhXhXhXhXhXhXhXhXhXhXhXhXhXhXhXhX",
"hXhXhXhXhXhXhXhXhXhXhXhXhXhXhXhXhXhXhXhXhXhXhXhXhXhXhXhXhXhXhXhXhXhXhXhXhXhXhXhXhXhXhXhXhXhXhXhXhXhXhXhXhXhXhXhXhXhXhXhXhXhXhXhX",
"hXhXhXhXhXhXhXhXhXhXhXhXhXhXhXhXhXhXhXhXhXhXhXhXhXhXhXhXhXhXhXhXhXhXhXhXhXhXhXhXhXhXhXhXhXhXhXhXhXhXhXhXhXhXhXhXhXhXhXhXhXhXhXhX",
"hXhXhXhXhXhXhXhXhXhXhXhXhXhXhXhXhXhXhXhXhXhXhXq.r.9.=._ ( hXhXhXhXhXhXhXhXhXhXhXhXhXhXhXhXhXhXhXhXhXhXhXhXhXhXhXhXhXhXhXhXhXhXhX",
"hXhXhXhXhXhXhXhXhXhXhXhXhXhXhXhXhXhXhXhXhX0.e.9.( b p p g F &.hXhXhXhXhXhXhXhXhXhXhXhXhXhXhXhXhXhXhXhXhXhXhXhXhXhXhXhXhXhXhXhXhX",
"hXhXhXhXhXhXhXhXhXhXhXhXhXhXhXhXhXhXhXD.e.O.} C p p P 4.l.b.l.x.p.p.p.r.hXhXhXhXhXhXhXhXhXhXhXhXhXhXhXhXhXhXhXhXhXhXhXhXhXhXhXhX",
"hXhXhXhXhXhXhXhXhXhXhXhXhXhXhXhXhXhXD.J.Z.O.~ h j 4.N.N.N.b.x.x.p.p.r.y.q.e.0.e.hXhXhXhXhXhXhXhXhXhXhXhXhXhXhXhXhXhXhXhXhXhXhXhX",
"hXhXhXhXhXhXhXhXhXhXhXhXhXhXhXhXhXA.D.D.D.u.} i.N.K.N.N.m.l.n.t.p.r.y.q.e.q.u.p.x.x.n.l.N.(.hXhXhXhXhXhXhXhXhXhXhXhXhXhXhXhXhXhX",
"hXhXhXhXhXhXhXhXhXhXhXhXhXhXhXhXf.A.A.A.D.D.0.O.m.K.K.K.K.x.r.x.p.r.y.q.r.u.u.u.p.p.t.4.;.*.&._ hXhXhXhXhXhXhXhXhXhXhXhXhXhXhXhX",
"hXhXhXhXhXhXhXhXhXhXhXhXhXhXhXhXN.N.m.m.A.A.A.O.0.D.J.J.K.H.w.p.N.q.w.e.q.y.y.r.y.:.&.` _ _ _ _ ( hXhXhXhXhXhXhXhXhXhXhXhXhXhXhX",
"hXhXhXhXhXhXhXhXhXhXhXhXhXhXhXhXN.N.b.c.m.m.m.n.q.h.D.J.J.J.S.0.h.S.0.0.e.e.e.:.&.` _ &.;.;._ ( ( ( hXhXhXhXhXhXhXhXhXhXhXhXhXhX",
"hXhXhXhXhXhXhXhXhXhXhXhXhXhXhXhXhXN.2.: > S I *.;.i.l.l.m.n.m.u.0.n.p.} 0.0.=.&._ _ 4.c.M.M.2.J ( U hXhXhXhXhXhXhXhXhXhXhXhXhXhX",
"hXhXhXhXhXhXhXhXhXhXhXhXhXhXhXhXhXN.c.> o o o o + : l D T *.1.i.u.r.n.9.0.{ ` _ _ 4.M.M.M.v.3.j J L L hXhXhXhXhXhXhXhXhXhXhXhXhX",
"hXhXhXhXhXhXhXhXhXhXhXhXhXhXhXhXhXN.N.I o O O O % % % % % < : > l F _ =.9.=._ ( &.c.M.v.c.c.j.j h L L hXhXhXhXhXhXhXhXhXhXhXhXhX",
"hXhXhXhXhXhXhXhXhXhXhXhXhXhXhXhXhXhXN.;.+ O % % & & & 1 , , #       . + =.>.( ( _ z.c.z.z.3.3.B s J K hXhXhXhXhXhXhXhXhXhXhXhXhX",
"hXhXhXhXhXhXhXhXhXhXhXhXhXhXhXhXhXhXv.C.6 % , , 1 5 5 5 1 2 = X X     . F w.( ( U 4.j.3.3.1.4.B p C P hXhXhXhXhXhXhXhXhXhXhXhXhX",
"hXhXhXhXhXhXhXhXhXhXhXhXhXhXhXhXhXhXC.S.E < , 5 4 4 4 4 w 2 3 # # @   . > 0.{ L L _ 3.4.4.4.;.j p N J hXhXhXhXhXhXhXhXhXhXhXhXhX",
"hXhXhXhXhXhXhXhXhXhXhXhXhXhXhXhXhXhXhXL.U.6 4 4 w q q q w 2 8 = = # X   O ..} ~ L L ;.4.;.*.&.g d C C hXhXhXhXhXhXhXhXhXhXhXhXhX",
"hXhXhXhXhXhXhXhXhXhXhXhXhXhXhXhXhXhXhXC.Q.W 4 q r r y t e 0 9 8 2 3 # @   z 0.( K K ` *.*.*.U s h C m hXhXhXhXhXhXhXhXhXhXhXhXhX",
"hXhXhXhXhXhXhXhXhXhXhXhXhXhXhXhXhXhXhXU.!.:Xq r @.@.@.u t t e 0 2 2 3 @ X : X.) J J L &.` ` J p c V m hXhXhXhXhXhXhXhXhXhXhXhXhX",
"hXhXhXhXhXhXhXhXhXhXhXhXhXhXhXhXhXhXhX:X~.~.@.@.#.#.#.#.i u u e 0 9 3 # X O Y [ K J K ( _ ( g p n m hXhXhXhXhXhXhXhXhXhXhXhXhXhX",
"hXhXhXhXhXhXhXhXhXhXhXhXhXhXhXhXhXhXhXhX6X6X;X#.$.>X$.>XaXi i u t 9 2 3 # X l [ ~ C C L ( F p g m n hXhXhXhXhXhXhXhXhXhXhXhXhXhX",
"hXhXhXhXhXhXhXhXhXhXhXhXhXhXhXhXhXhXhXhX3X5X7X$.>XaXsXsXaXaX>Xi y e 9 2 = @ +  ./ C m J J s p n n n hXhXhXhXhXhXhXhXhXhXhXhXhXhX",
"hXhXhXhXhXhXhXhXhXhXhXhXhXhXhXhXhXhXhX;XC./.6X<XsXdXfXfXfXdXaX$.u t 0 2 = @ - A / J m m d p x n n hXhXhXhXhXhXhXhXhXhXhXhXhXhXhX",
"hXhXhXhXhXhXhXhXhXhXhXhXhXhXhXhXhXhXhX7.0.s.C.s.3XgX8XE.3XfX4X<Xi y t 2 = # X > / Q M M d d n b b hXhXhXhXhXhXhXhXhXhXhXhXhXhXhX",
"hXhXhXhXhXhXhXhXhXhXhXhXhXhXhXhXhXhXhXs.9.p.q.9.F.iX/.r.w.Q.w.I.,X%.P.7 3 # X O o./ n n x b v v hXhXhXhXhXhXhXhXhXhXhXhXhXhXhXhX",
"hXhXhXhXhXhXhXhXhXhXhXhXhXhXhXhXhXhX:Xd.t.t.y.t.u.E.Z.d.0.p.q.q.T.1.q.P.1 # X . k ! Z b v v v hXhXhXhXhXhXhXhXhXhXhXhXhXhXhXhXhX",
"hXhXhXhXhXhXhXhXhXhXhXhXhXhXhXhXE U.E.i.l.i.e.l.z.w.q.x.p.t.l.t.F.u.t.s.T S %   ; ! Q c c c v hXhXhXhXhXhXhXhXhXhXhXhXhXhXhXhXhX",
"hXhXhXhXhXhXhXhXhXhXhXhXhXhX8.d.w.0.0.y.y.e.} O.p.t.r.p.0.i.l.i.p.p.x.e.u.l...A k Q Q c c c hXhXhXhXhXhXhXhXhXhXhXhXhXhXhXhXhXhX",
"hXhXhXhXhXhXhXhXhXhXhXhXN.v.S.5.} 0.{ r.e.e./ O.u.v.i.t.9.w.p.x.x.i.q.0.e.x.X. .! ! Q v x hXhXhXhXhXhXhXhXhXhXhXhXhXhXhXhXhXhXhX",
"hXhXhXhXhXhXhXhXhXhXg.n.n.n.1.R ^ } | i.r.| ^ >.t.p.e.t.t.p.Z.0.r.q.r.u.p.s.! o./ ! ! Q hXhXhXhXhXhXhXhXhXhXhXhXhXhXhXhXhXhXhXhX",
"hXhXhXhXhXhXhXhXhXhXg.g.f.0.w.H.d.s.s.C.a.] ] ] i.l.y.y.l.y.z.9.w.n.u.0.q.| Z A ] X.{ { hXhXhXhXhXhXhXhXhXhXhXhXhXhXhXhXhXhXhXhX",
"hXhXhXhXhXhXhXhXhXhXg.f.D.Z.a.d.@X@X@X/.Q.X.:./ ] y.d.} >.e.i.t.p.d.] X.X.X.6.6.=.&.&.&.hXhXhXhXhXhXhXhXhXhXhXhXhXhXhXhXhXhXhXhX",
"hXhXhXhXhXhXhXhXhXhXg.f.A.J.V.a.L.#X%X%X9X5X5X6XI.6.] | / | :.l.y.=.X.I.E.8.7.5.&.&.` _ hXhXhXhXhXhXhXhXhXhXhXhXhXhXhXhXhXhXhXhX",
"hXhXhXhXhXhXhXhXhXhXf.A.D.S.G.x.s.@X+X@X%X9XqXpXpXuX3XI.6.] :.d.~.~.~.U.I.5.5.&._ _ _ _ hXhXhXhXhXhXhXhXhXhXhXhXhXhXhXhXhXhXhXhX",
"hXhXhXhXhXhXhXhXhXhXw.A.J.s.m 5.L.C.f./.$XeX9XwXtXpXpXuXqX^.^.6X2XT.U.I.5.5...U U U ( U hXhXhXhXhXhXhXhXhXhXhXhXhXhXhXhXhXhXhXhX",
"hXhXhXhXhXhXhXhXhXhX/ w.J.1.f R .XL.E.F.!.%X%X9X0XyXyXtXwXwX6X1XR.Y.Y.+.5.5.5.F j U U U hXhXhXhXhXhXhXhXhXhXhXhXhXhXhXhXhXhXhXhX",
"hXhXhXhXhXhXhXhXhXhXO.[ Z.1.f R  XG.6.Q.!.+X%X%X9X0XrXrXeX0X^.R.Y.Y.P.5.7.8.1.F g L U L hXhXhXhXhXhXhXhXhXhXhXhXhXhXhXhXhXhXhXhX",
"hXhXhXhXhXhXhXhXhXhXO.0.0.6.f F (.v.X.a.F.@X/.+X$X$XeX-XrX%XW.Y.+.P.8.8.8.<.;.B h K K K hXhXhXhXhXhXhXhXhXhXhXhXhXhXhXhXhXhXhXhX",
"hXhXhXhXhXhXhXhXhXhX[ O.0.) f N v.N.V.d.S.!.L.!.+X%X%X=X-X=X~.+.+.5.8.8.*.*.*.B h F P P hXhXhXhXhXhXhXhXhXhXhXhXhXhXhXhXhXhXhXhX",
"hXhXhXhXhXhXhXhXhXhXh.0.w.) f m l.m.N.N.H.H.!.[.#X*X#X#X*X*XW.T T ..7.5.5.&.&.B d V P C hXhXhXhXhXhXhXhXhXhXhXhXhXhXhXhXhXhXhXhX",
"hXhXhXhXhXhXhXq.i.u.J.Z.0.' f m l.m.n.b.m.G.H.{.&X&X&X{.{.*Xk.T Y ..&.&.&._ ` b d C V C hXhXhXhXhXhXhXhXhXhXhXhXhXhXhXhXhXhXhXhX",
"hXhXhXhXhXhX>.p.n.x.B.K.S.) f M t.l.x.x.x.x.[.{. X.XoX.X]..Xj.P A L _ _ _ ( ( j d m m m hXhXhXhXhXhXhXhXhXhXhXhXhXhXhXhXhXhXhXhX",
"hXhXhXhXhXhXv G { 3.m.H.[.:.f n p.t.t.x.t.N.`.`.{.}.XXXX}.).2.m C P _ ( ( ( ( j d n M n hXhXhXhX0.s.u.p.hXhXhXhXhXhXhXhXhXhXhXhX",
"hXhXhXhXhXhXc x C { y.u.m.3.f n y.u.p.u.x.].{.].v.`.XXXXXX`.;.m M J U U U L K g p n n m hXhXhXhX>.x.t.S.hXhXhXhXhXhXhXhXhXhXhXhX",
"hXhXhXhXhXhXG v M =.l.l.m.3.h M q.i.r.p.[.{.].x.r._.|.XXXXXX4.M M C L L L P K g d v v ~ u.p.p.i.c K ` 3.].hXhXhXhXhXhXhXhXhXhXhX",
"hXhXhXhXhXhXx m P M ~ ' i.c.b n e.q.q.H.].].v.r.p._.'.XXXXXXj.b n m P L K J P d p c c K :.p.c.B.C v K 1.(.hXhXhXhXhXhXhXhXhXhXhX",
"hXhXhXhXhXhX~ ~ ~ K f m *.c.N v 0.e.x.[.[.v.q.e.u.'.).`.XXXX2.c b M J J P K ~ J g c x x c C =.v.;.] -.1.hXhXhXhXhXhXhXhXhXhXhXhX",
"hXhXhXhXhX0.p.p.p.;.x x K *.hXhXhXa.B.[.S.w.0.0.y.}.}.).}.XX2.c c n C C L y.p.p.:.V x ~ n a ~ 4.y.x.x.x.hXhXhXhXhXhXhXhXhXhXhXhX",
"hXhXhXhXhXL :.p.v.(.hXhXhXhXhXa.u.p.p.hXhX} -.0.q.(.OX`.).|.2.x c v V C >.y.c.p.N.4.x M ~ K U ;.K { 1.c.hXhXhXhXhXhXhXhXhXhXhXhX",
"hXhXhXhXhXf c C &.hXhXhXhXhXhX{ p.p.N.hXhXhX-.y.u.x. XXX`.'.,.x x c M H 0.0.d.` 3.B.hXhXx b _ c.L f V &.hXhXhXhXhXhXhXhXhXhXhXhX",
"hXhXhXhXhXhXhXhXhXhXhXhXhXhXhXv C ( 1.hXhXhX>.t.p.p.`.XX X).&.f x x hXhXr.u.i.M ( j.hXhXC c C <.hXhXhXhXhXhXhXhXhXhXhXhXhXhXhXhX",
"hXhXhXhXhXhXhXhXhXhXhXe.p.u.=.x a C <.hXhXhX~ :.u.v._.c.p.x.=.f f x hXhXp.p.y.~ *.hXhXhXM C _ z.hXhXhXhXhXhXhXhXhXhXhXhXhXhXhXhX",
"hXhXhXhXhXhXhXhXhXhX~ 1.p.x.z.b n U z.hXhXhXC n K 4.3.r.x.x.z.n a M 6.u.t.b.{ C hXhXhXhXhXx m hXhXhXhXhXhXhXhXhXhXhXhXhXhXhXhXhX",
"hXhXhXhXhXhXhXhXhXhXhXn G &.3.x x P hXhXhXhXM C L 3.hXC ` :.z.m hXe.p.p.x.i.hXhXhXhXhXhXhXhXhXhXhXhXhXhXhXhXhXhXhXhXhXhXhXhXhXhX",
"hXhXhXhXhXhXhXhXhXhXhXhXhXhXhXhXhXhXhXhXhXM V C _ G.hXa f C hXhXhX) y.i.M.hXhXhXhXhXhXhXhXhXhXhXhXhXhXhXhXhXhXhXhXhXhXhXhXhXhXhX",
"hXhXhXhXhXhXhXhXhXhXhXhXhXhXhXhXhXhXhXhXhXhXx n ( hXhXhXhXhXhXhXhXf c L <.hXhXhXhXhXhXhXhXhXhXhXhXhXhXhXhXhXhXhXhXhXhXhXhXhXhXhX",
"hXhXhXhXhXhXhXhXhXhXhXhXhXhXhXhXhXhXhXhXhXhXhXhXhXhXhXhXhXhXhXhXhXhXhXhXhXhXhXhXhXhXhXhXhXhXhXhXhXhXhXhXhXhXhXhXhXhXhXhXhXhXhXhX",
"hXhXhXhXhXhXhXhXhXhXhXhXhXhXhXhXhXhXhXhXhXhXhXhXhXhXhXhXhXhXhXhXhXhXhXhXhXhXhXhXhXhXhXhXhXhXhXhXhXhXhXhXhXhXhXhXhXhXhXhXhXhXhXhX"
};
