/* XPM */
static char *_0684d1a5d064892bdadf98058f35acfTkURUamsijJQhMbR[] = {
/* columns rows colors chars-per-pixel */
"64 64 17 1 ",
"  c #070707",
". c #060606",
"X c gray2",
"o c #070607",
"O c #060607",
"+ c #060707",
"@ c #070606",
"# c #060706",
"$ c #070706",
"% c #050506",
"& c #070708",
"* c gray3",
"= c #050606",
"- c #060506",
"; c #060605",
": c #060505",
"> c white",
/* pixels */
" .    .   .X  .  ... o.. . .... .    O..          .....  o .  O.",
".   ...    ...O.  ..OO....Oo..   ..  .... .o.   .......  ..... .",
" O ...O+  @O  .    ...........O@..... ....... ..... . ...... ...",
".  .         ..   O..OO... ..... .    O.O.O.  +.+  .. ......  .@",
" . .....O .O  ..#.  .. ...... ......   .O..X   .  O..... . .. . ",
" ......oo.$ .  .  ...... ..o. ......O. ...     .. o .....  .....",
".........O .   .  .O. ....   +. .... .....  . ...... . .......  ",
"....o  ..o.   OX.O  ...o  ..O.. ..........O.. ... O. .....o .+  ",
" ....  . .....  O... . o...+O.O O.%. .. ..  ......  .O..+.....  ",
" ..........     ... O.  .. +.O. ..  &   ..   O.O .. .. . ... ..o",
"..........o   .O.   .OO........  . ......  ..  .  .... ... .....",
"... .... .  .  .OO* ..o...o ..  ....  OO..  .....O..... .. .... ",
"   ..... ..+.  %.  ...O .. .. O.  .+..  .OO. +..   . .  ..... . ",
" o......+.$ .+O... o... .....  ....  .O ....O...* .O .......... ",
"$....XX......  O&+..O.. O...   .   O & ..+..O  ...  ...  .... ..",
"...oO.... ...& .O..O..O. o... ..   .   ....%.  ...  ....O .   .O",
"  ....  oO .   ...  .O+ O.. .. ..  .   O.  ...o.. .+.    .  @...",
" . ......  +   +.. O   .O O+ O... +..O +  + +.O...    . ..   .. ",
"..@...  ..... O..O...  .#. .....  ....   . O........  ..   .....",
" +.. ......... ... . O........ .....O.O. +.....  +.......   ....",
" .o.....+.$.. .. ... .     ..  .. .. .. O... .  .# ...+.  ..... ",
" .O .  ... .  . o.....  O.. .  .. O   + . ...    ......... .. .O",
" .. .  ..O ....O.....  ...O..+.O +. .... ..O......O......  .  . ",
" ......... ...........+.O..........O...... ..O....  .....=.. +. ",
" o....o  .......O.O.   .O... ...............  + ..  ..........  ",
" ..  ....  .  .. .+. + +.O.O .......... ....  .........O   .....",
"...oo...  o.. ..  .... ....O@...... ..O  ..O...... .........   .",
"X.... ...o .  Oo ..O. O....%... .. $...O  .....O....$...... .  .",
".. ..O...  ..#. +...  +......   .............  O.. ..... .. ... ",
" . ..O+..... .  . .  +...  .O .....O. O........%.. O.  . .....O ",
".  .. .....  ........Oo....o......................... ....+. .  ",
"OO+ ...  .  ....+  O. O.......O...... ..O..... ........... .  .O",
"@......   .  O. +*....O..   .. ..... . ...O....o .. ........ $..",
" O.........  . * .O.....@..... .....  .O................. .. oOo",
"@. .. O... O... .... O.  ....... .............. .O .. ... ... .@",
"..  O O...  . ..  ..  ...* ..... .. .......OOO.... O.....O.....o",
".   .. .... .o..O ..OO.O. .. ..  .  .........  ....o. . .X......",
"....   o.     .. ...o   .  O o  ... .. ..... o....... . ... ....",
" . ....    .# .  .... ...O..o  ...........O  O....... ...  ... @",
" ........  .... ...  .... ............O. .@..O..........#.......",
"   ......  ..    .  .X  .... ...... ..O. $O........ .......  .. ",
" ...........o.  . ....+ ..+...... ........ ....... ....OO...... ",
"........... . ............... ...o....O...O.....................",
" . ...    .....o......... O.....X.. ................O+... ......",
" ...-.&.. ....  ....+....+......X.OO  O.. ..  ... ..  ..... .. .",
" . ....   .... ........   O........... =.  .. ..  ...........;. ",
" ... .    .....O....... o.... O........O ......o  .%...  ..... .",
" ... .......  .......O.......O.....% O.  .....O........ . o.....",
" .  O.O. ...O...O.....O.... .....O..O..O...O........X.........%.",
"...... .. .X. ...O........O ............  O.....................",
"  ........O....... O. .... ....%-.. .......o. ....o.....-. .....",
"  @........ ........ .   ...-.... o........ .. ...........O.....",
".  @.. . ....O .. .....o..... ...  ....... ..  . .X..X. ........",
"o  ..  .o..  .@....$.............. ..O........#O...... .....    ",
".o.. .....: +.......... ...-X..........OO.....  .....  .. ......",
" .. ..  ......... ......... . .......%. .... O..... #... .... . ",
"  .... .@. ..@ . OX... .@   . O ....O .... ..oO...  ..... ..... ",
" ......X.+.....o......Oo  o........o   O* ..................%...",
"....  .........+... .o .   ..-.o.......O..X.. .o........... ... ",
"...@  ...........O..........o. O...=@  ....... .........  .. .. ",
"............O.... ... O......  .-o.... ..O..o  ......O. .o.X...@",
" .... .%   ......O........-...O... ..o.......O........ O.....   ",
"..  .... ..o.   O......O.........  O.   ... ...  ....  ..O. .  .",
".oo .....O. o O.o..O.O..O ........oO.. . O ...O......  .o #...@o"
};
