/* XPM */
static char *c21c69d9994844a7c2054c1ec4557015dHn9btbwrqOcSAtl[] = {
/* columns rows colors chars-per-pixel */
"64 64 222 2 ",
"   c None",
".  c #5E330C",
"X  c #5E3007",
"o  c #5B3616",
"O  c #643912",
"+  c #6A3D14",
"@  c #653A19",
"#  c #61350E",
"$  c #6B3B24",
"%  c #6B411B",
"&  c #75461C",
"*  c #564632",
"=  c #714622",
"-  c #734A25",
";  c #7C4D23",
":  c #764E29",
">  c #73482E",
",  c #7B522E",
"<  c #764634",
"1  c #7D5636",
"2  c #684831",
"3  c #2E5772",
"4  c #384245",
"5  c #574845",
"6  c #45575B",
"7  c #47595D",
"8  c #495B5F",
"9  c #5E5156",
"0  c #6A5448",
"q  c #7A5846",
"w  c #6B5951",
"e  c #4A5A63",
"r  c #4E6166",
"t  c #4F636B",
"y  c #54666B",
"u  c #5A6D73",
"i  c #556A75",
"p  c #5A707C",
"a  c #5C7176",
"s  c #496176",
"d  c #686666",
"f  c #796D67",
"g  c #697879",
"h  c #6A7276",
"j  c #746156",
"k  c #885628",
"l  c #845C39",
"z  c #885F3A",
"x  c #835834",
"c  c #8B5536",
"v  c #8B613B",
"b  c #9B6A3D",
"n  c #9A6534",
"m  c #A26E3D",
"M  c #A8713F",
"N  c #875A46",
"B  c #8A5D4E",
"V  c #99684A",
"C  c #826358",
"Z  c #9D6A51",
"A  c #8C6148",
"S  c #A16E45",
"D  c #A67141",
"F  c #AD7642",
"G  c #A2724C",
"H  c #B07844",
"J  c #B07743",
"K  c #AE755B",
"L  c #877169",
"P  c #A27C6E",
"I  c #D27553",
"U  c #ED7C55",
"Y  c #768378",
"T  c #B98462",
"R  c #C6926A",
"E  c #CC9476",
"W  c #F2956F",
"Q  c #D8A27B",
"!  c #F8A07B",
"~  c #ED835C",
"^  c #055694",
"/  c #065895",
"(  c #065C99",
")  c #095E9B",
"_  c #0B5B96",
"`  c #0D548A",
"'  c #0B619E",
"]  c #286587",
"[  c #376585",
"{  c #37769A",
"}  c #2C7199",
"|  c #0C65A2",
" . c #0C6BA9",
".. c #136AA6",
"X. c #1872AB",
"o. c #1176B4",
"O. c #1679B6",
"+. c #167DBB",
"@. c #1A7DB8",
"#. c #0B76B8",
"$. c #2678AB",
"%. c #347CA5",
"&. c #277FB2",
"*. c #2A5B80",
"=. c #49738A",
"-. c #5A7687",
";. c #487189",
":. c #677B84",
">. c #0C7FC1",
",. c #1A82BE",
"<. c #2686BC",
"1. c #3688B7",
"2. c #3287B4",
"3. c #6A828E",
"4. c #6B8089",
"5. c #6D8592",
"6. c #6E8994",
"7. c #6F8D9B",
"8. c #738B93",
"9. c #728D9B",
"0. c #788E9C",
"q. c #79939C",
"w. c #74878E",
"e. c #4587A9",
"r. c #4F8EAD",
"t. c #7C9BA7",
"y. c #6B95A6",
"u. c #0E83C5",
"i. c #0E85C9",
"p. c #1384C5",
"a. c #1187C9",
"s. c #148BCC",
"d. c #1B89C6",
"f. c #158ED0",
"g. c #1A94D5",
"h. c #1D9BDB",
"j. c #1D97D8",
"k. c #1E91CF",
"l. c #248BC5",
"z. c #2391CC",
"x. c #219EDE",
"c. c #2699D5",
"v. c #3697CD",
"b. c #26A1DF",
"n. c #3AA6DB",
"m. c #1FA2E2",
"M. c #23A4E3",
"N. c #2BA5E2",
"B. c #2BA8E6",
"V. c #2AACEB",
"C. c #26A9E8",
"Z. c #36AAE2",
"A. c #2DB0EE",
"S. c #39B4EE",
"D. c #2EB4F2",
"F. c #31B6F3",
"G. c #33B9F6",
"H. c #34BDFA",
"J. c #3BBCF7",
"K. c #4A9BC9",
"L. c #46A3D4",
"P. c #56A8D7",
"I. c #49A2CA",
"U. c #47B6EC",
"Y. c #57B9EA",
"T. c #44BBF3",
"R. c #4FB8ED",
"E. c #37C1FE",
"W. c #39C3FF",
"Q. c #4DC9FF",
"!. c #46C6FE",
"~. c #55CBFE",
"^. c #5BCDFE",
"/. c #56C5F8",
"(. c #69D2FF",
"). c #76D6FF",
"_. c #72C9F1",
"`. c #82949C",
"'. c #B29791",
"]. c #829AA5",
"[. c #869DA9",
"{. c #89A2AB",
"}. c #8DA4B2",
"|. c #95ADBA",
" X c #98ACB7",
".X c #9FB2BB",
"XX c #8BACB7",
"oX c #AFAFB1",
"OX c #BCAD9D",
"+X c #D0A68C",
"@X c #E4AE88",
"#X c #E9B48D",
"$X c #E9B48C",
"%X c #EBB893",
"&X c #F1BD94",
"*X c #F2AD86",
"=X c #CFBBB3",
"-X c #EFC19F",
";X c #9DB6C4",
":X c #92BBC5",
">X c #86B4C0",
",X c #A5BBC8",
"<X c #94C6D1",
"1X c #ACC1CD",
"2X c #ACC4D1",
"3X c #B8CCD7",
"4X c #BED1DB",
"5X c #B1C2CB",
"6X c #9AD8E4",
"7X c #86DBFF",
"8X c #A7DAE5",
"9X c #9EE0EC",
"0X c #A8E6F1",
"qX c #DED4D1",
"wX c #CDD0D4",
"eX c #F4E3D7",
"rX c #CADCE5",
"tX c #D2E3ED",
"yX c #DAEBF4",
"uX c #D7E7F0",
"iX c #C4F7FF",
"pX c white",
/* pixels */
"                                                                                                                                ",
"                                                                                                                                ",
"                                                                                                                                ",
"                                      7 r i p p p i                                                                             ",
"                                      7 p 3.[.|.}.3.i                                                                           ",
"                                      6 :.].5.[.,X;X0.p t                                                                       ",
"                                        u ;X|.5.9.|.1X,X:.t                                                                     ",
"                                        r {.2X;Xt.3.}.tXrX[.p                                                                   ",
"                                          y `.1X,X{.5.}.tXyX1X5.t                                                               ",
"                                            e :..X2X;X].].4XyX4X].i                                                             ",
"                                              6 y [.3XtX,Xq.1XrX2X|.g 7                                                         ",
"                                                  e w.3XyX4X[.[.;X4X4X`.y 6                                                     ",
"                                                    6 u .XuXuX.X9.,XyXuX1X4.8       r y r 7                                     ",
"                                                        e `.rXtX|.].4XuX3X3X}.u 6 r 4.3.8.u                                     ",
"                                                          7 :.5X2X1XrX3X|.,X1X,X:.a q.6.q.:.                                    ",
"                                                              y [.3XyXrXt.0.t.t.9.:.q.9.4.-.                                    ",
"                                                                e w.3XyX,X6.8X0X8XXX8.8.-.                                      ",
"                                                    +             * u .X,X7.6XiXiX6Xq.0.=.>.p.+.| /                             ",
"                                                    k ;       + ; +   r 8.9.<X0X0X<X7.3.2.B.F.E.N.z.|                           ",
"                                                    % c +   & m M %     6 r g Y 7.5.8.-.n.).W.V.j.E.c.)                         ",
"                                                      + + & M H M k + * * - - o h 8.-.%.c.U.J.C.D.W.V.p.|                       ",
"                                                . + % & k M H F J F k ; n m : * :.-.&.C.x.a.h.Q.(.E.x.C.@.                      ",
"                                            . % k b F F H F F F D D D D D x O       i.J.^.F.s.V.T.N.G.E.d.                      ",
"                                          + k M H H F J J J F b l l z v l % .     #.s.x.Y.S.f.a.a.U.^.F.s.                      ",
"                                        + n F H F F F D m D F b l l l l = . .   4 l.T.b.g.g.M.C.s.U.Z.f.                        ",
"                                      . # & D F J F D z l l z z , - 1 l , : = o 3 S.(.W.H.D.H.G.s.>.#. .                        ",
"                                        # k D b J D z l l , l , , G = = , : @ 2 X.V.!.E.E.E.G.h.f.a.X.^                         ",
"                                        ; b l v D v l 1 : - , - T K N > # o < Z -.,.Z.E.E.E.E.x.>.O.'                           ",
"                                      + x l l l l l - O x V = ; R P qXOX> 2 A V q f L e.n.F.x.s.b.O.                            ",
"                                      % l l l l l x @ < '.'.P R %XeXwXL < 5 j q A G N N h p.f.V.!.L./                           ",
"                                      = l l l l l , @ '.pXqX'.-X&XeXqXC c 5 $.y N N q f %.x.H.E.^.K.^                           ",
"                                      % - 1 l , : : $ =XpX=XL %X&X+X+XE I N %.d.;.q d d.C.G.G.^._.$.                            ",
"                                      . . , , < x % Z P qXeX=X&X&X@XE *XU I i F.g.{ i +.G.G.c.P.$.^                             ",
"                                        X % @ Z @XV Q Q R %X&X&X&X&X#X*X! K i E.H.h.} 3 ,.~.K./                                 ",
"                                        X.] ] =.OX%X&X*XI ~ *X&X&XQ R #X@XN e.W.E.H.x.} *.<.$.                                  ",
"                                      a.b.R.R.B.z.9.E $XW ~ ! &X&X#X&X$XZ e N.E.E.E.E.j.X.^                                     ",
"                                    p.C.A.U.(.).G.g.[ B T Q @X#X#X@XE B e d.s.V.W.E.C.s.                                        ",
"                                   .x.x.C.V.C.N.E.J.s.} s 9 w B q q 9 [ c.m.g.f.C.g.u.>.                                        ",
"                                ^ o.M.G.E.E.E.V.F.W.V.a.M.N.c.l.<.<.d.g.C.x.G.s.s.g.u.                                          ",
"                                ( c.^.!.E.E.E.W.D.h.H.g.f.M.M.m.M.M.h.f.g.G.E.x.a.a.                                            ",
"                                ' U.7XQ.E.E.E.E.E.h.V.M.h.H.F.V.C.C.x.h.b.W.W.D.u.                                              ",
"                                | T.(.J.E.W.E.E.W.C.g.2.n.E.W.W.W.W.^.E.C.^.Q.G.a.                                              ",
"                                ) b.d.O.z.N.F.D.b.<.-.C [ h.C.V.F./._.K.r.r.I.Z.a.>.                                            ",
"                                  O.@.P.Z.c.s.<.e.} p f t b.M.h.g.1.6.t.q.8.5.3.c.a.                                            ",
"                                  ) | v.S.E.j.@.Z.S.N.z.&.c.M.C.V.r.{.].t.t.9.6.v.u.                                            ",
"                                    2.Y.D.F.a.g.H.Q.(.Q.D.g.B.N.j.1.{.t.6X9X:X8.%.p.                                            ",
"                                  / P.^.E.D.u.C.E.E.E.E.H.C./.7X^.j.r.>X9X9X<X8.%.s.x.                                          ",
"                                  ^ K.^.W.G.s.F.E.E.E.C.h.G.E.~.^.x.2.t.<X:Xt.8.;.=.c.g.                                        ",
"                                    ..L.V.V.g.C.E.E.D.C.D.E.E.E.!.S.s.r.8.6.6.:.q 0 1.M.u.                                      ",
"                                      ) v.F.h.g.E.E.M.M.E.E.E.E.Q.).Z.{ f d j q q q ;.i.                                        ",
"                                      ' v.z.o.k.E.E.G.g.G.E.E.E.E.T.x.[ q 1 1 N N N 5                                           ",
"                                      /       ) z.G.A.C.H.E.E.W.Z. .[ 0 1 q w -.=.d 5                                           ",
"                                                ( X. .C.W.E.E.Q.P._ 5 0 h { <.c.Y.L.}                                           ",
"                                              ^ +.b.+.o.A.Q./.l.$.(   3 c.H.M.S.Q.S. .                                          ",
"                                              ) N.W.H.z.o.l.$.`       _ B.W.G.A.C.d./                                           ",
"                                            ) ,.M.E.E.H.x.' ^         ) N.E.E.H.A.+.(                                           ",
"                                            X.n.x.D.V.V.j. .          | g.D.D.C.M.j.o./                                         ",
"                                            ' ,.M.V.G.E.!.Y.X.        $.n.M.C.F.E.^.Y...                                        ",
"                                              ) f.x.H.E.W.Q.l.^       ' X.s.x.G.E.W.~.l.^                                       ",
"                                                |  .O.+.+.O.' ^           ) | O.,.d.d.| ^                                       ",
"                                                                                                                                ",
"                                                                                                                                ",
"                                                                                                                                ",
"                                                                                                                                "
};
