/* XPM */
static char *_d6fb809da1b4ad8fad9fd9ec845967083Byk5kVn8dnzQkX[] = {
/* columns rows colors chars-per-pixel */
"54 64 237 2 ",
"   c None",
".  c #66381D",
"X  c #613922",
"o  c #764B07",
"O  c #7F5300",
"+  c #6A4200",
"@  c #7A4526",
"#  c #7E492A",
"$  c #764427",
"%  c #754D34",
"&  c #77533B",
"*  c #71502F",
"=  c #6C1D73",
"-  c #693076",
";  c #5E3C6D",
":  c #48575A",
">  c #4D4D4A",
",  c #6C5645",
"<  c #755A46",
"1  c #684D47",
"2  c #7A6859",
"3  c #736355",
"4  c #4A5C62",
"5  c #514C65",
"6  c #664F7A",
"7  c #4E6368",
"8  c #52666B",
"9  c #53686D",
"0  c #556B72",
"q  c #596E74",
"w  c #5A6F79",
"e  c #5C7279",
"r  c #5C767C",
"t  c #6A6B64",
"y  c #7C756A",
"u  c #61767B",
"i  c #65797E",
"p  c #6A7778",
"a  c #797A73",
"s  c #626B79",
"d  c #A3351E",
"f  c #825500",
"g  c #8B5A01",
"h  c #905F00",
"j  c #95510B",
"k  c #975A17",
"l  c #946201",
"z  c #9B6701",
"x  c #9C6802",
"c  c #956915",
"v  c #A56C01",
"b  c #BC7C01",
"n  c #B57805",
"m  c #AA7717",
"M  c #B37D17",
"N  c #AB7308",
"B  c #834C2C",
"V  c #894F2E",
"C  c #89502F",
"Z  c #8C5231",
"A  c #855234",
"S  c #915634",
"D  c #935836",
"F  c #804D30",
"G  c #AE4E32",
"H  c #966B26",
"J  c #A67A26",
"K  c #AF7634",
"L  c #A14D17",
"P  c #C47A04",
"I  c #C45F2D",
"U  c #8B5844",
"Y  c #8A6B4B",
"T  c #AC7456",
"R  c #84796D",
"E  c #A47065",
"W  c #AC5746",
"Q  c #C66950",
"!  c #C77763",
"~  c #F47A5A",
"^  c #768D78",
"/  c #B98017",
"(  c #B78A34",
")  c #AF832C",
"_  c #C48202",
"`  c #CC8601",
"'  c #CE8803",
"]  c #D48C00",
"[  c #D68C01",
"{  c #DC9203",
"}  c #C28517",
"|  c #E39600",
" . c #EA9C04",
".. c #E29112",
"X. c #FBA500",
"o. c #FFA900",
"O. c #F9A505",
"+. c #F6AA13",
"@. c #CD9427",
"#. c #D8A129",
"$. c #FDB427",
"%. c #F1B134",
"&. c #939656",
"*. c #A89945",
"=. c #B48950",
"-. c #B68E6B",
";. c #A4A05D",
":. c #C49946",
">. c #DB865A",
",. c #D7AB57",
"<. c #FDBE44",
"1. c #E6B555",
"2. c #C8976B",
"3. c #D5997B",
"4. c #CB8B72",
"5. c #F4896C",
"6. c #DDB464",
"7. c #CEA877",
"8. c #E4BB6B",
"9. c #E9BB70",
"0. c #FFC759",
"q. c #FAC969",
"w. c #EDC373",
"e. c #F6CB79",
"r. c #FED27D",
"t. c #FFD176",
"y. c #7D3084",
"u. c #11639D",
"i. c #2777AD",
"p. c #15669C",
"a. c #7C4A85",
"s. c #725A86",
"d. c #5B7A85",
"f. c #6C6A86",
"g. c #647B83",
"h. c #6A7F84",
"j. c #657B87",
"k. c #776F8F",
"l. c #8E1D8E",
"z. c #932A91",
"x. c #A3299D",
"c. c #B418AB",
"v. c #AF2CA6",
"b. c #A3179E",
"n. c #C614BB",
"m. c #C72AB8",
"M. c #C230B4",
"N. c #8B4991",
"B. c #3785B9",
"V. c #6B848B",
"C. c #688489",
"Z. c #74878C",
"A. c #6D8A93",
"S. c #6B8791",
"D. c #728D94",
"F. c #748C9A",
"G. c #778C97",
"H. c #7B959C",
"J. c #7D989E",
"K. c #759298",
"L. c #69939B",
"P. c #4A92AA",
"I. c #7B9BA2",
"U. c #7B93A0",
"Y. c #7AA2AD",
"T. c #7AA9B6",
"R. c #5E8188",
"E. c #2D9CD2",
"W. c #29A1DA",
"Q. c #24A4E5",
"!. c #34B4F3",
"~. c #4297C2",
"^. c #52A8D1",
"/. c #73B4D0",
"(. c #48B5EB",
"). c #38C2FF",
"_. c #4DC8FE",
"`. c #6FCBF6",
"'. c #849A9C",
"]. c #868C8C",
"[. c #A89C9B",
"{. c #A3B49C",
"}. c #829CA3",
"|. c #879CA8",
" X c #8E96A5",
".X c #84A4AA",
"XX c #8AA3AC",
"oX c #8CACB3",
"OX c #8BA5B3",
"+X c #95ACB8",
"@X c #8BB1B9",
"#X c #96B1BC",
"$X c #92A5AE",
"%X c #9AA98C",
"&X c #DA9987",
"*X c #F09E84",
"=X c #CFA796",
"-X c #E7AC96",
";X c #E7B29B",
":X c #EFA88F",
">X c #EBBBA8",
",X c #F1BDA9",
"<X c #D8BBB0",
"1X c #D3C48E",
"2X c #FFD789",
"3X c #FFD88A",
"4X c #FDD484",
"5X c #F0CD83",
"6X c #D5C4BF",
"7X c #F2C3AD",
"8X c #F9CAB6",
"9X c #F8CAB6",
"0X c #F4CDBE",
"qX c #86B9C5",
"wX c #9AB7C1",
"eX c #A4BDCA",
"rX c #A3BAC7",
"tX c #8ECBD8",
"yX c #98D1DD",
"uX c #AAC1CD",
"iX c #AAC5D1",
"pX c #B4CAD6",
"aX c #AED1DD",
"sX c #98DAE7",
"dX c #86D7FC",
"fX c #A4E2ED",
"gX c #B3E2EB",
"hX c #B7ECF6",
"jX c #BCF1FB",
"kX c #A6E5F1",
"lX c #9ADFF4",
"zX c #DBD1CD",
"xX c #EFD7CE",
"cX c #C5D8E4",
"vX c #DAE3E9",
"bX c #C7F1F9",
"nX c #EFF0F3",
/* pixels */
"                                      c J c                                                                 ",
"                                    ) w.r.8.J                                                               ",
"                                  c w.3X3X3X8.c     p.i.                                                    ",
"                                f ' <.t.4X4X8.c c Y P.`.i.                                                  ",
"                              ) z | o. .( %X^ 7.e.{.(.lX/.u.                                                ",
"                          J 6.e.m | o.b ) ~.(.^.{.P.!.`.dX~.u.u.B.i.                                        ",
"                        =.e.3Xq.m | $.1.;.E.dXdX^.W.).)._.!.E.(.dXB.                                        ",
"                      ( 4X2X4X$.n { q.2X1XE._._.!.Q.Q.Q.Q.Q.Q.!.(.i.                                        ",
"                    c w.3X2X0.o._ #.2X4X1XE.E.P.^ &.*.*.*.*.&.^ P.P.Y f                                     ",
"                    M r.t.r.$.' ` %.6.,.e.;.#.+.o.o.o.o.o.o.o.O.q.5Xe.( f                                   ",
"                  f @.t.%.%. .x { | / $.$.o.o.o.o.o.o.o.o.o.X.o.0.2X6.8.) O                                 ",
"                  h  .$.o.X._ m  .m %.$.+.+.X.o.X.o.o.o.o.o.X.` %.4Xw.:.6.c O                               ",
"                  n o.X.[ ` n 1.@.:.t.q.q.@.X. .b X.o.X.` { X.| M w.3X:.,.:.O                               ",
"                x | | b _ | ) e.( 8.3X3X,.N X._ =./ X.o.M K M [ ] ( 4X8.J 6.c                               ",
"              f l x n | o.[ :.e.) e.3Xt.M h ] K 7X2./ X.} ;X;X=.M z 8.5XH ,.J                               ",
"                  f [ o.o.b ,.q.J 5X3X1.v l z =.-.-X2.n M ,X8X7X-.K 6.4XJ :.)                               ",
"                  f { o.X.n #.$.M e.r...v g o # -.-X,X2.2.9X>XT # K 9.4XJ ' n                               ",
"                  x  .| b l | | z %.$.[ h o o =XnXvXxX8X8XxXnXzXY o 1.r.m _ v                               ",
"                f x v h     ` N k { o._ f C C xXuXd.6X8X9XxXA.wX=X+ @.<.z v z                               ",
"                            l k =.n o.b H -.T nXXX4 zX8X9XzX: OX<Xo  . .h f                                 ",
"                            f L 3.) ] P 2.:XQ xXvX6X9X9X8XxX+XvX=Xj X.P O                                   ",
"                            h P Q 3.J v >.5.3.! 4.4.,X8X;X3.0X&XQ I ' h                                     ",
"                              b ..I 4.=.&X*X3.;X-X,X9X8X>XT ;X>X*XG g                                       ",
"                              g b n G -X8X7X2.2.-X7X8X9X8X>X9X0X;XG                                         ",
"                                  f   G ! ;X7X-X3.3.>X8X8X8X8X;XQ                                           ",
"                                        d G &X9X9X8X8X8X8X8X&XG                                             ",
"                                      : 1 U 5.:X;X;X;X;X&X! U                                               ",
"                                  9 h.G.U.i E 5.~ Q G W E [. X4                                             ",
"                                9 +XpXcXpXwXZ.-X*X:X4.Y XXiXiXu :                                           ",
"                              : q +XvXvXiXeXF.[.>X8X>X].i XXpXXX7                                           ",
"                              4 u g. XeXeXeXF.F.].[. XrX$Xh.#XG.7                                           ",
"                            7 p 2 a h.Z.eXeXF.#XwXOXeX#XD.8 j.                    9 R.r r e 8               ",
"                          u a & @ # a g.Z.U.F.pXcXiXwXwXZ.:                     9 qXfXyXgXgXiXV.            ",
"                        h.2 A B C S # y i w OXiXpXeXwX}.u u :                   D.jXhXgXbXbXhXqX            ",
"                    Z.a U B Z # S S B C y C.g.A.F.F.S.8 $XeXq                 7 Y.tXtX@XhXjXkXtXd.          ",
"                  i R Z S Z B B D S B S # a C.G.#X+XZ.8 |.pXH.:           8 0 A.yXsXsXT.qXfXfXsXL.          ",
"                  p A D D Z @ Z D D S D C & Z.V.G.h.e C.J.H.+X9         9 V.V.Y.bXhXkXsXY.tXsXsXS.          ",
"                8 y Z D S C $ Z D D D D S C < G.e }.OXC.I..XD.8       > g.'.J.K.gXhXsXsXqX/.T.Y.9           ",
"                r y S D B & % Z D D D D Z D B ^ D.K.wXD.V.I.V.8 > . $ & p H.}.D.Y.sXqXqXyXfXyXA.            ",
"                V.2 B Z < Z.p # D S D S Z D A '.V.G.wX}.S.A.J.9 * @ Z S 3 S.H.Z.d.Y.qXgXjXgX.X              ",
"                V.3 @ * h..XH., Z Z D S Z D U oXh.J.wXXXA.C.K.C.% V Z B % s d.q 7 9 C.K.I.V.                ",
"                C.Y S C t I.V., @ @ # # B C 2 #Xu }.#XoXH.g.V.I.t % @ $ .                                   ",
"                i Y S S & s , B Z B Z Z B # R oXq H..X.XJ.j.f.H.V.> X                                       ",
"                e Y S S B $ B S Z Z D D D Z ]..Xq H.}..XI.A.s.k.A.7                                         ",
"                q 2 S D B @ S D Z Z D D D A '.H.e J.}..XH.H.f.N.g.8                                         ",
"                8 t Z S B # D D D D D D Z < oXV.s K.}..XH.}.V.N.a.                                          ",
"                  p & C # B D D D D D C & K.oXs 6 D..XoXH.}.D.N.v.                                          ",
"                  u 2 B # B D D S S B , '.@XV.a.N.D.@XwX}.'.K.s.m.l.                                        ",
"                  7 i < @ C D S @ % t }.oXg.a.M.z.j..X@X.XD.C.a.c.c.                                        ",
"                    9 i , # # % 3 G.oXI.w N.M.m.v.f.V.D.A.C.f.m.n.b.                                        ",
"                      8 q t p C.D.D.g.6 y.v.m.m.m.v.N.N.f.f.v.n.=                                           ",
"                        4 9 0 9 7 4 ; l.l.z.v.x.x.z.x.v.z.z.b.=                                             ",
"                                    5 6 ; ; 6 s.k. Xf.= = = =                                               ",
"                                    8 H.U.D.H.oXwXoXC.                                                      ",
"                                    0 |.+XA.S.I..XV.0                                                       ",
"                                    u rXeXg.U.}.}.OXh.                                                      ",
"                                    u eXeXe |.uXiXeXA.0 8                                                   ",
"                                    0 H.i 0 F.OX#X|.F.rXuXZ.                                                ",
"                                          h.rXU.j.F.+XeXpXiXg.                                              ",
"                                          8 $XOXj.|.|.wXwX+XZ.                                              ",
"                                          : 7 8 8 e q e q 8                                                 ",
"                                                                                                            ",
"                                                                                                            ",
"                                                                                                            "
};
