/* XPM */
static char *_ece0d89465d4867e60a324da5087c93ZYdP6bymDWN8kvSt[] = {
/* columns rows colors chars-per-pixel */
"54 64 240 2 ",
"   c None",
".  c #7E5303",
"X  c #744809",
"o  c #7B4526",
"O  c #7B4A2C",
"+  c #764529",
"@  c #794D32",
"#  c #79533B",
"$  c #714C2F",
"%  c #574132",
"&  c #5B1D66",
"*  c #722C7A",
"=  c #5E2469",
"-  c #375D6F",
";  c #46585C",
":  c #555B5C",
">  c #6D5949",
",  c #755743",
"<  c #6B5F55",
"1  c #796659",
"2  c #6A6358",
"3  c #4B5E62",
"4  c #535468",
"5  c #6A4E79",
"6  c #4D6166",
"7  c #4E646A",
"8  c #52656B",
"9  c #54696E",
"0  c #556B71",
"q  c #596D73",
"w  c #5D747B",
"e  c #5A7277",
"r  c #62757B",
"t  c #64797E",
"y  c #697576",
"u  c #767B77",
"i  c #6E706D",
"p  c #596045",
"a  c #65381D",
"s  c #865903",
"d  c #885901",
"f  c #88510C",
"g  c #B05517",
"h  c #936000",
"j  c #9A6601",
"k  c #926613",
"l  c #A56C03",
"z  c #AC7101",
"x  c #AB740A",
"c  c #B87A02",
"v  c #A77619",
"b  c #AE7317",
"n  c #834C2C",
"m  c #8D5332",
"M  c #855434",
"N  c #915634",
"B  c #935836",
"V  c #8F4E31",
"C  c #AD4933",
"Z  c #976E2F",
"A  c #A97D29",
"S  c #A77A3D",
"D  c #CB6720",
"F  c #825B44",
"G  c #89654F",
"H  c #B1714E",
"J  c #937870",
"K  c #C6735D",
"L  c #CB7B66",
"P  c #D77E66",
"I  c #E97F61",
"U  c #A53720",
"Y  c #7A817C",
"T  c #B48738",
"R  c #B3842C",
"E  c #B8831D",
"W  c #CA8501",
"Q  c #C88402",
"!  c #D58C01",
"~  c #DB9000",
"^  c #CC8E17",
"/  c #EB9A00",
"(  c #E29501",
")  c #E59D11",
"_  c #EEA40C",
"`  c #FBA600",
"'  c #FFA901",
"]  c #F5A305",
"[  c #FCAE14",
"{  c #F0A815",
"}  c #C79636",
"|  c #C69328",
" . c #FEBC3A",
".. c #F3AE26",
"X. c #D0A026",
"o. c #B88B4B",
"O. c #B1A567",
"+. c #898C69",
"@. c #C6924F",
"#. c #CDA353",
"$. c #D5AA58",
"%. c #D3A650",
"&. c #EEB74C",
"*. c #C5946B",
"=. c #D28E78",
"-. c #FF8867",
";. c #E5856A",
":. c #D4B167",
">. c #E6B968",
",. c #FEC658",
"<. c #FFC148",
"1. c #F7CC7A",
"2. c #FDD27D",
"3. c #F0C56F",
"4. c #792D81",
"5. c #10619C",
"6. c #1873AE",
"7. c #156BA6",
"8. c #755784",
"9. c #7A4E84",
"0. c #5E7B85",
"q. c #696682",
"w. c #657B83",
"e. c #6A7D85",
"r. c #677887",
"t. c #74718F",
"y. c #911A90",
"u. c #862689",
"i. c #933390",
"p. c #A72A9E",
"a. c #A5339D",
"s. c #A919A3",
"d. c #B516AD",
"f. c #AB35A4",
"g. c #B22CA7",
"h. c #A1169D",
"j. c #C42CB5",
"k. c #C92DBA",
"l. c #CC16BF",
"z. c #8C4A92",
"x. c #915A9E",
"c. c #D616C6",
"v. c #CD14C0",
"b. c #EC17D7",
"n. c #F211DD",
"m. c #D724C7",
"M. c #FB10E4",
"N. c #F911E3",
"B. c #E021CD",
"V. c #3B95B8",
"C. c #3A89BB",
"Z. c #658289",
"A. c #6B848C",
"S. c #6A888E",
"D. c #688285",
"F. c #778687",
"G. c #6D8793",
"H. c #728C93",
"J. c #758D9A",
"K. c #788896",
"L. c #75949B",
"P. c #7A949C",
"I. c #7B999E",
"U. c #749096",
"Y. c #6B9597",
"T. c #4292A5",
"R. c #4B97B3",
"E. c #7C94A2",
"W. c #7B9CA4",
"Q. c #6F9BA4",
"!. c #7CACB9",
"~. c #59A1BD",
"^. c #349CCA",
"/. c #33BBFA",
"(. c #2DB0EF",
"). c #2CA2DB",
"_. c #58A5D2",
"`. c #73B5CF",
"'. c #60BBEA",
"]. c #6ED0FD",
"[. c #41C6FF",
"{. c #869799",
"}. c #AB9796",
"|. c #829BA3",
" X c #849DAA",
".X c #8699A6",
"XX c #89A3AD",
"oX c #8AA9AF",
"OX c #84A4AA",
"+X c #8DA5B3",
"@X c #8EADB4",
"#X c #82ABB7",
"$X c #91AAB5",
"%X c #93ABB7",
"&X c #96B4BD",
"*X c #90ADB4",
"=X c #A9B2B2",
"-X c #8EAC9F",
";X c #D69E84",
":X c #DAA78A",
">X c #D3AA94",
",X c #E8B49C",
"<X c #EDA78F",
"1X c #DCBAB0",
"2X c #EABCA6",
"3X c #F8BDA7",
"4X c #FF9E82",
"5X c #FED585",
"6X c #FFD788",
"7X c #FFD889",
"8X c #E9CE8C",
"9X c #F5C1AC",
"0X c #F9CAB6",
"qX c #F6C9B5",
"wX c #F6C8B3",
"eX c #86B8C5",
"rX c #9BB7C2",
"tX c #A4BDCB",
"yX c #A3BAC6",
"uX c #8BC8D5",
"iX c #8DC9D5",
"pX c #A9C1CE",
"aX c #ABC3D1",
"sX c #B5CBD6",
"dX c #BCD1DD",
"fX c #AECDD5",
"gX c #97DAE7",
"hX c #8BD8FC",
"jX c #A5DCE7",
"kX c #BFD4E0",
"lX c #A4E2EE",
"zX c #B4EAF4",
"xX c #BEF2FB",
"cX c #AFE4EE",
"vX c #9AE0ED",
"bX c #CAD0D4",
"nX c #F3DDD6",
"mX c #E8D5CF",
"MX c #C4D8E3",
"NX c #D0EFF8",
/* pixels */
"                                                                                                            ",
"                                                                                                            ",
"                                                                                                            ",
"                                                                                                            ",
"                                      k o.$.T k                                                             ",
"                                    s #.6X7X6X#.        5.                                                  ",
"                                    x ,.6X7X7X1.v . . - _.6.                                                ",
"                                  d W [  .&.3.#.T @.O.R.hX_.5.                                              ",
"                              T $.v ~ ' ~ v Y.R.oX8X-X).].hXC.    5.5.                                      ",
"                          k #.5X6XR ~ ' | o.V.].'.~.V.(.[.].'.7.6.'.C.                                      ",
"                        k #.6X6X,.x ~ &.2.:.^.].hX].(././././.(./.].C.                                      ",
"                        A 5X6X2.[ Q ^ 2.7X8X^./.(.^.V.T.T.T.T.V.^.).6.p                                     ",
"                        } 5X5X,.] W ..5X3.8XQ.Y.+.| ) _ _ _ _ ) X.O.-X:.k .                                 ",
"                      h &.,.,...z Q [ } } ,...` ' ' ' ' ' ' ' ' ' ,.6X1.>.k .                               ",
"                      z [ [ ' ! j ( Q E [ [ ' ` ' ' ' ' ' ' ' ` /  .6X>.$.#.s                               ",
"                    d ~ ' / ~ z } ) A &.<. .../ ` ( ` ' ' ] ` ' ! ^ 2.6X@.:.R .                             ",
"                  . z ( Q c ~ E 1.} #.6X6X1.| ] / l ! ' ' Q x ~ ] Q @.6X>.T $.s                             ",
"                  s d j ! ` ! @.2.R 3.6X6X%.h ( c *.o.! ' ! *.o.b Q x >.1.A :.v                             ",
"                      z ` ' c $.3.v 1.7X1.b h c T ,X2Xo.! Q :X0X2Xo.k #.6XA #.R                             ",
"                      z ` ` z &.&.v 1.7X&.z h d M G *.,Xo.v ,X3X:XH H >.6XA | E                             ",
"                    d W / Q l _ / j >.1.) l s X M mXnXqX9X:X0XnX>XO f $.6XA Q z                             ",
"                    d j j   h / c d ) [ ~ d . X >XNXeXmX0X0XnXMXMX>XX T 1.v c l                             ",
"                              c k H Q ' W s S N nXaX; =X0X0XnXF.0.mXX Q ..j h h                             ",
"                              d V ;Xv / Q S >XH nXbXe.mX0X0XnXr  XmXf / ( d .                               ",
"                              h g L *.x c @.4XP =.mX1X2X0X9X2XnXmX=.g / z                                   ",
"                              d ! D L o.k @.-.4X=.L =.3X0X9XH :X=.I D l d                                   ",
"                                l ( D H :X2X3X*.:X9X0X0X0XqX;X2X0X3XH f                                     ",
"                                  h j f K ,XqX,X*.*.:X2X0XqX0X0X0X<XC                                       ",
"                                          C K ,X0X2X,X3XqXqX0XwX=.C                                         ",
"                                  ; ; ;   U C ;.9XqX0X0X0XqX,XL V                                           ",
"                              3 t H.P.H.8 V ;.-.-.;.K L L K H }.t                                           ",
"                            ; A.sXMXdXsX|.1 ,X4X-.I C C J }.=XdX&X8                         3 8 w           ",
"                    w.q     3 yXNXNXMXpX&Xr.}.9X3X9X;XG F.rXtXtXsXe.                    0 0.OXfXcXeX        ",
"                q u 1 F.e ; r MXNXdXtXtX%XG.J.{.1X2X}.P.t H.tXtXsX+X3                 e eXjXzXNXNXlX`.      ",
"              t i @ o # F.0 |.dXsXtXtXtX+XE.yX XK..X&XpX&Xq $XtXtX+X9                 I.xXzXjXNXxXlXgXQ.    ",
"          t u , n o m m # F.r |.tXtXtX+XH.+XaXsXtXtXtX$XJ.3 J. XJ.w ;                 W.jXiX!.eXgXlXvX`.6   ",
"        F.G M n n n B m n F F.e J.%XP.w.E.rXdXMXaXrXrXrXe.3 A.A.U.w 3 ;               Y.uXgXgX#X!.iXuXQ.3   ",
"      Y G N m m o m B m m m 1 H.q 9 ; 8 J.W. X+X+X+X.Xr ; 3 A.H.A.J. Xq             8 #XzXzXlXlXeXeXeXW.    ",
"    q 1 m B N m o N B N N N n i H.8     A.XX XE.E.P.q ;     e r.J.rXsX+X6         q w.W.xXxXgXiXuXlXcXI.    ",
"    t F N B m o n B B N B B N @ Y D.3   q A.+X&X.Xw.9 0 q 3 w.|.rXtXdXMXe.      6 A.P.H.#XlXiXeXcXxX&X      ",
"    F.M B N O > @ B B N B m m m , I.w A.Z.e 9 t t A.0.H.@XA.e.tXtXtXaXdX X3     3 H.|.|.A.Y.!.eX&XI.q       ",
"    F.+ n # i U.> m B N B m m N 1 XXw @X+X0.S.@X&XrXI.Z.L.oXt $XtXtXtXtX X3   a , y U.|.H.q 7               ",
"  e Y n o 2 L.oXi n m m B m N m +.OXw @XW.0.H.rXrXrXoXS.A.U.|.A.+XL.P.E.J.0 % o N F y Z.q 3                 ",
"  q u m N , A.L.2 + o o n n m M {.I.w.OXA.q.r.OX*X&X$XH.A.S.W.I.w.yXdXpX+X9 $ n m n $ :                     ",
"  9 u m B M 2 2 O m n m m n n # *XA.U.L.e.* q.H.@XrX&XE.Z.Z.S.OXH.&XkX&XA.3 $ m n +                         ",
"  8 i m B m + o m N n B B B N G &Xw.H.A.8.i.8.S.OXoX@X|.H.q.A.U.OXe.E.A.$X$X< # +                           ",
"    i m B m o m N N m B B B m J @Xw Z.r.i.p.8.Z.|.|.oXI.L.q.9.G.L.A.A.J.tXMX X:                             ",
"    y # N m o N B B B B B N @ {.OXe Z.8.g.g.9.Z.E.|.oXI.I.r.a.z.t.w .XsX+XaX+X6                             ",
"    r 1 n n o N B B B B N O i @XS.w t.p.j.j.z.w.I.|.oXI.|.e.a.j.a.4 |.MX XE.r                               ",
"    0 u O n o B B N N m @ u @XW.r 9.m.N.k.j.i.r.I.|.oXI.|.S.z.k.k.p.t.|.E.8                                 ",
"      r 1 + n B N n O > F.@XL.5 f.c.M.M.m.k.a.q.I.XX&XW.|.H.z.j.m.b.u.4 3                                   ",
"      6 w 2 O O @ > F.oXOXZ.5 f.B.M.N.n.m.k.g.8.U.&XrXOXI.S.z.p.b.M.s.&                                     ",
"        6 q y i D.H.L.Z.0 5 j.b.M.M.c.l.m.k.j.z.Z.L.OXI.S.q.i.s.n.N.y.&                                     ",
"          3 7 0 8 7 6 3   & s.N.M.v.s.s.j.k.k.f.8.t.A.S.r.f.c.y.u.u.=                                       ",
"                            = u.d.h.y.u.p.k.j.g.g.f.i.5 a.c.u.t.G..Xr 8 w.t 8                               ",
"                              r.x.* 4.4.4.u.* * * u.y.u.y.* r.|.rXtXL.|.dXdX%Xr                             ",
"                              r  Xe..XK.q.4           & & 4 G.yXtXyXJ.%XpXaXrXw.                            ",
"                                w J. XXXH.3                 8 J.E.G.G.%X$X Xw                               ",
"                                0 E.+XaXsXq                 7 E.&XE.e.E.w 6                                 ",
"                                  0 XXaXdXe.                  r +XJ.0 6                                     ",
"                                    q .XyXr                     3 ;                                         ",
"                                      8 w.6                                                                 ",
"                                                                                                            ",
"                                                                                                            "
};
