/* XPM */
static char *dbee63e239544629b7ee03bae8654624tGeaxfSrDDy9nPeM[] = {
/* columns rows colors chars-per-pixel */
"54 64 231 2 ",
"   c None",
".  c #754B0A",
"X  c #7A4526",
"o  c #7D4A2B",
"O  c #78482B",
"+  c #784D33",
"@  c #78533A",
"#  c #704F33",
"$  c #631D6C",
"%  c #563B69",
"&  c #6C2C76",
"*  c #5B1D66",
"=  c #3B4D56",
"-  c #47585D",
";  c #765C49",
":  c #6D5645",
">  c #6D6357",
",  c #7B6553",
"<  c #78604F",
"1  c #4B5D62",
"2  c #4A5761",
"3  c #544A68",
"4  c #695D7B",
"5  c #4E6268",
"6  c #55696E",
"7  c #556468",
"8  c #546B72",
"9  c #596C75",
"0  c #5C747B",
"q  c #5B767B",
"w  c #4B6774",
"e  c #7B7266",
"r  c #62797E",
"t  c #67787A",
"y  c #777C77",
"u  c #6D6B6A",
"i  c #9F3A25",
"p  c #835500",
"a  c #8B5B01",
"s  c #855907",
"d  c #915D00",
"f  c #8D610E",
"g  c #976402",
"h  c #996916",
"j  c #9B701E",
"k  c #A36C02",
"l  c #A46C05",
"z  c #AE7301",
"x  c #AA730C",
"c  c #BC7C02",
"v  c #B47704",
"b  c #B57C17",
"n  c #844C2C",
"m  c #884F2F",
"M  c #8A502F",
"N  c #8D5331",
"B  c #885435",
"V  c #925634",
"C  c #935836",
"Z  c #A74229",
"A  c #AC532F",
"S  c #8C6537",
"D  c #A67826",
"F  c #AB7132",
"G  c #B05F0A",
"H  c #C17F00",
"J  c #D67A0A",
"K  c #C76021",
"L  c #865E45",
"P  c #826855",
"I  c #946E4B",
"U  c #A37652",
"Y  c #A9774E",
"T  c #82776C",
"R  c #B37464",
"E  c #C1664D",
"W  c #E47052",
"Q  c #C87864",
"!  c #C95B41",
"~  c #778973",
"^  c #B78426",
"/  c #B68A37",
"(  c #B08830",
")  c #B7821D",
"_  c #CB8601",
"`  c #C68403",
"'  c #D48C01",
"]  c #DD9407",
"[  c #D6971C",
"{  c #E89901",
"}  c #F09E00",
"|  c #E18407",
" . c #F5A201",
".. c #FBA600",
"X. c #FFA800",
"o. c #F2A30C",
"O. c #FAAC14",
"+. c #FFB117",
"@. c #C7962B",
"#. c #D6A126",
"$. c #FEB528",
"%. c #FDBA37",
"&. c #E9A829",
"*. c #D7A11E",
"=. c #989155",
"-. c #B8914D",
";. c #8E897B",
":. c #BC8D68",
">. c #C49947",
",. c #D6AB59",
"<. c #D6A74F",
"1. c #F0B84C",
"2. c #C48B6A",
"3. c #CB9B71",
"4. c #D6937C",
"5. c #CE8D71",
"6. c #F48967",
"7. c #D8AD69",
"8. c #E5BB69",
"9. c #EBB070",
"0. c #FFC552",
"q. c #EDC16A",
"w. c #FBC967",
"e. c #ECC373",
"r. c #F5CA77",
"t. c #FFD27A",
"y. c #7C2B83",
"u. c #085B98",
"i. c #15679E",
"p. c #1F70A8",
"a. c #2B79AD",
"s. c #714F82",
"d. c #5E7B83",
"f. c #657C83",
"g. c #6A7E82",
"h. c #6A7988",
"j. c #706A88",
"k. c #872889",
"l. c #992199",
"z. c #AA18A4",
"x. c #AF2EA7",
"c. c #A0349F",
"v. c #C818BA",
"b. c #CA2EBA",
"n. c #84458C",
"m. c #8F4696",
"M. c #DD19CC",
"N. c #3E8DBF",
"B. c #598D92",
"V. c #6B838B",
"C. c #6A8389",
"Z. c #768689",
"A. c #6C8A94",
"S. c #748C94",
"D. c #758998",
"F. c #7D929C",
"G. c #769599",
"H. c #679290",
"J. c #7C96A1",
"K. c #7195A2",
"L. c #7BABB8",
"P. c #79ABB1",
"I. c #7AA09D",
"U. c #2D97C5",
"Y. c #3499CA",
"T. c #36A7DD",
"R. c #28A8E6",
"E. c #37B3EE",
"W. c #53A3CE",
"Q. c #47B5EC",
"!. c #6AB5DE",
"~. c #38C1FF",
"^. c #57C9FC",
"/. c #78CEF6",
"(. c #849599",
"). c #888788",
"_. c #B29489",
"`. c #B6B49B",
"'. c #829BA4",
"]. c #839BA9",
"[. c #86A5AC",
"{. c #8BABB4",
"}. c #95ACB8",
"|. c #99B1BC",
" X c #90A7A9",
".X c #A39FA0",
"XX c #DB9883",
"oX c #E49D87",
"OX c #DBA78A",
"+X c #CEAF8F",
"@X c #EEA88E",
"#X c #EAB9A5",
"$X c #F2BDA7",
"%X c #DEBDB4",
"&X c #FED585",
"*X c #FED789",
"=X c #FFD889",
"-X c #F3CD81",
";X c #F2C3AE",
":X c #F5C6B2",
">X c #F9CAB6",
",X c #FACDB9",
"<X c #F7CCB9",
"1X c #ECC6B5",
"2X c #DBC3B7",
"3X c #84BECB",
"4X c #9DB5C2",
"5X c #99B9C6",
"6X c #A4BDCB",
"7X c #A6B9C4",
"8X c #8DCBD8",
"9X c #95CCD7",
"0X c #98C8D2",
"qX c #A9C0CD",
"wX c #A9C7D3",
"eX c #B6CCD8",
"rX c #BDD1DC",
"tX c #97DBE8",
"yX c #88D8FB",
"uX c #A8D9E2",
"iX c #9DE0ED",
"pX c #B5E5EE",
"aX c #B6EDF7",
"sX c #AFE9F4",
"dX c #D2D1D1",
"fX c #EED1C8",
"gX c #C3D7E2",
"hX c #C4F7FF",
"jX c #D3E5EF",
"kX c #F2EEEE",
"lX c #F5E5DF",
/* pixels */
"                                                                                                            ",
"                                                                                                            ",
"                                                                                                            ",
"                                      f / / j                                                               ",
"                                    f ,.*X*Xe.D         u.                                                  ",
"                                    ^ &X*X*X=X7.s     a.N.                                                  ",
"                                  a { %.w.r.-X<.D ( ~ W.yXa.                                                ",
"                              ( @.k  .X.' / K.H.+X*XP.Q.yX!.i.    u.                                        ",
"                          h >.r.e.x  . .) =.T./.W.I.Y.~.^./.Y.u.a.W.p.                                      ",
"                        f ,.*X*X1.k o.0.e.;.T.yXyXQ.R.~.~.~.E.R.^./.p.                                      ",
"                        / *X*Xt.O.z &.&X=X`.R.~.E.T.U.U.U.U.U.Y.R.T.i.                                      ",
"                      a ,.*X*X0.} ` 1.*Xt.`.Y.B.~ -.@.#.#.*.#./ =.G.I./ p                                   ",
"                      l w.w.w.O.v ] %.>.<.q.#.o.X.X.X.X.X.X.X.X.+.t.&Xr./ p                                 ",
"                      c %.$.+.` k { c @.+.O.X.X.X.X.X.X.X.X.X...o.w.*X,.8.( .                               ",
"                    a { X. .{ l [ ] ^ 1.$.$.o. ... .X.X.X...X. .H 1.=Xe.-.8.h                               ",
"                  p H  .] c _ ^ w.^ 7.&Xt.q.' X.' z  .X. .v _  .{ b e.*X-.,.>.                              ",
"                p p k z ` } ' <.e.( &X*X*X/ z } b 2.b  ...b :.D _ _ / *X,.D ,.f                             ",
"                      c X.X.v 8.,./ *X*X8.l g ` -.:X3.b } ^ ;X;X3.D h e.e.j ,.h                             ",
"                      H X.} x w.<./ *X&X#.k d a U U OX3.x / :X$XOXU Y r.r.h [ g                             ",
"                    a ' X.' z $.] ^ &Xw.' g s . I 2X1X:XOXOXfX#XU X F r.r.h ' g                             ",
"                    g H v d k  .c k $.+.H a . X fXjXrX,X>X,XlXgXdXS p 8.q.g c                               ",
"                            g _ h h { X.z s S U kX].9 1X>X,XdXw 6X_.. #.&.a a                               ",
"                              a F :.c ..l -.2.R kXS.Z.fX>X,XdX= eX+Xa X._ p                                 ",
"                              d A OXF ' b 4.@XE fXlX%X:X>X;XfXdXlXR G  .k                                   ",
"                              k J ! 4.D h 6.6.oXQ Q 4.:X>XOX:.#X5.W K z p                                   ",
"                              a ` | A 2.3.$XoX5.$X$X>X>X>X#X:.;X>X@XA p                                     ",
"                                a v k A oX:X;X3.2.OX#X:X>X>X:X>X,X4.Z                                       ",
"                                        Z E oX:X$XOXOX;X>X>X>X:X4.A                                         ",
"                                          i Z @X>X<X,X,X<X>X#XQ Z                                           ",
"                                        1 7 7 T XXoXXXXXXXQ A                                               ",
"                                    1 V.{.4X4XJ.e W ! Z R _.7                                               ",
"                                    0 eXjXjXeX6XZ.XX@X5.;.wXS.-                                             ",
"                                  - F.jXjXgX6X6XF.`.:X:X).F.|.7 -                                           ",
"                                - 6 (.(.}.}.6X6XD.A.(..X|.F.'.9                                             ",
"                                5 h.C.Z.C.r V.'.A.4X}.|.4Xf.8                                               ",
"                                  6 y @ , y Z.f.0 (.7X4X|.0                                                 ",
"                                  t ; X N n @ , y S.V.S.S.1                                                 ",
"                                8 y o n C N n N o ; Z.S.r 5                                                 ",
"                                g.; M o V V N C V N o ; (.f.                                                ",
"                              r e n N X V C C C C N V m ;.F.-                                               ",
"                              y B N N X N C C C C N V N T {.6                                               ",
"                            S.P V V V X N C C V C N N V P }.r 0             - C.K.d.-                       ",
"                            t L V C N O + N C V C V m M +  XA.r   1 8 6 1 5 G.pXaX9XA.6                     ",
"                            0 P V C n u t @ N m n o X n n (.[.8 f.V.S.C.C.L.8X9XpXpXaX0X0                   ",
"                            9 e N C @ S.[.t # X o N V C N T {.0 f.D.'.S.5XaXtXtXL.pXhXhX0X                  ",
"                              Z.o X : V.'.g.+ N m C C C V , {.f.q h.G.S.wXhXsXtXP.uXhXaX9X                  ",
"                              S.; m m : r > n C m V C C N > {.C.f.j.h.C.0XsXiXiX{.8XsXiX3X                  ",
"                              q T N C N + O M V V V C C o Z.{.q S.h.s.0 L.3X3X8XL.8XiXtXP.                  ",
"                              3 C.L V V N X N V C C C N : [.G.0 '.V.n.3 H.8X9X8X8XL.8X8XC.                  ",
"                              $ 4 e N C V X m C C C V o y {.q C.'.S.n.    S.uXaXaX0XA.q                     ",
"                              k.c.t ; N N n X C C N o > [.A.C.J.G.f.n.z.    r [.[.F.6                       ",
"                            $ l.b.m.t ; m m X N C M # (.F.9 A.S.C.j.v.z.                                    ",
"                            * & x.b.m.g., o X m m @ y S.8 4 j.h.j.x.v.$                                     ",
"                              % y.M.M.c.h.u > # ; t d.5 s.x.x.k.k.z.&                                       ",
"                              q j.& k.l.& 5 8 8 0 6 2 % & s.m.y.& & 6 7                                     ",
"                            1 S.[.V.D.D.3   3 2 - -     2 d.'.F.D.A.|.7Xg.                                  ",
"                          5 0 ].qX4XC.d.                  F.}.A.V.{.4XrX7X6                                 ",
"                          r }.J.4X4Xh.9 5                 r ].V.A.'.}.6XqXg.                                ",
"                        - g.wXJ.D.D.].6X7Xg.              - -   5 6 0 f.f.6                                 ",
"                          5 S.F.h.[.|.wXrX7X9                                                               ",
"                              8 V.D.F.].'.F.9                                                               ",
"                                                                                                            ",
"                                                                                                            ",
"                                                                                                            "
};
