/* XPM */
static char *_c8c9349e02248d38b16841a20c3d114J7lSCif9LKmiT4Ob[] = {
/* columns rows colors chars-per-pixel */
"64 64 156 2 ",
"   c #060607",
".  c #070709",
"X  c #0B0B0D",
"o  c #0E0E11",
"O  c #121215",
"+  c #161619",
"@  c #1A1A1D",
"#  c #1D1D22",
"$  c #222226",
"%  c #25252A",
"&  c #2A2A2D",
"*  c #272731",
"=  c #2B2B34",
"-  c #2E2E39",
";  c #323234",
":  c #32323C",
">  c #39393E",
",  c #363642",
"<  c #3B3B44",
"1  c #373748",
"2  c #3D3D4B",
"3  c #3F3F51",
"4  c #414147",
"5  c #43434B",
"6  c #49494E",
"7  c #444454",
"8  c #4B4B54",
"9  c #464659",
"0  c #4C4C5C",
"q  c #525255",
"w  c #52525D",
"e  c #5B5B5E",
"r  c #4E4E61",
"t  c #545463",
"y  c #585866",
"u  c #595966",
"i  c #595967",
"p  c #5B5B67",
"a  c #585864",
"s  c #5F5F67",
"d  c #5A5A65",
"f  c #555568",
"g  c #545469",
"h  c #565669",
"j  c #575769",
"k  c #56566A",
"l  c #57576A",
"z  c #56566B",
"x  c #565669",
"c  c #585868",
"v  c #595968",
"b  c #595969",
"n  c #5A5A68",
"m  c #59596A",
"M  c #59596B",
"N  c #5A5A6A",
"B  c #5B5B6A",
"V  c #5A5A6B",
"C  c #5F5F68",
"Z  c #5D5D6A",
"A  c #5E5E6A",
"S  c #5E5E6B",
"D  c #58586C",
"F  c #5B5B6C",
"G  c #58586E",
"H  c #5B5B6E",
"J  c #5C5C6C",
"K  c #5D5D6C",
"L  c #5C5C6D",
"P  c #5D5D6D",
"I  c #5F5F6D",
"U  c #5C5C6E",
"Y  c #5D5D6F",
"T  c #5E5E6E",
"R  c #5E5E6F",
"E  c #5F5F6F",
"W  c #5C5C6B",
"Q  c #5B5B70",
"!  c #5F5F71",
"~  c #5F5F71",
"^  c #616166",
"/  c #60606D",
"(  c #60606E",
")  c #61616E",
"_  c #60606F",
"`  c #62626F",
"'  c #62626D",
"]  c #6A6A6F",
"[  c #616170",
"{  c #606071",
"}  c #626270",
"|  c #636370",
" . c #636371",
".. c #626272",
"X. c #636372",
"o. c #626273",
"O. c #636373",
"+. c #646470",
"@. c #656570",
"#. c #646471",
"$. c #656572",
"%. c #656573",
"&. c #636375",
"*. c #656574",
"=. c #646475",
"-. c #676775",
";. c #646476",
":. c #676776",
">. c #646472",
",. c #686874",
"<. c #696974",
"1. c #696976",
"2. c #696977",
"3. c #6A6A76",
"4. c #6B6B76",
"5. c #6A6A75",
"6. c #656579",
"7. c #676779",
"8. c #696978",
"9. c #6B6B79",
"0. c #6F6F7A",
"q. c #6E6E7B",
"w. c #6F6F7B",
"e. c #6E6E7C",
"r. c #6F6F7C",
"t. c #6D6D7A",
"y. c #707077",
"u. c #727277",
"i. c #70707D",
"p. c #75757E",
"a. c #72727D",
"s. c #7A7A7C",
"d. c #737380",
"f. c #757581",
"g. c #747482",
"h. c #767681",
"j. c #7A7A85",
"k. c #7B7B84",
"l. c #7B7B84",
"z. c #7E7E89",
"x. c #818186",
"c. c #808089",
"v. c #83838C",
"b. c #83838B",
"n. c #89898F",
"m. c #878791",
"M. c #8A8A94",
"N. c #8C8C92",
"B. c #8F8F98",
"V. c #8F8F98",
"C. c #919196",
"Z. c #949499",
"A. c #99999D",
"S. c #9D9DA1",
"D. c #A1A1A4",
"F. c #A5A5A9",
/* pixels */
"= 4 : : < , : : < 2 < 4 8 q 8 @ ; w 8 5 : : : < 2 : : : - - = O # : = = : - : - - : 2 4 : : : O # , : - : < < < < 2 4 2 , , - + ",
"2 o.t R f M R M R o.o.R a.M.y.+ q B.l.t 0 9 t M R R g M l r 3 O - D 9 r Q D l r r f ! &.f f 9 o - 7.M l M o.#.R R 4.4.e.o.R 7 O ",
": g 0 t 7 t M 0 0 w 0 0 f 4.p @ 8 c.d < 9 9 0 t l t 0 l 0 9 7 o - r 7 0 t l 0 7 7 t t g r t 7 X : &.t M R t w d h.4.t / / R 2 O ",
"- g f 9 9 f t / #.S / o.f ;.p O > d.9 < 9 9 0 f d 9 0 9 9 9 < X = r 0 r f g 9 9 r M R f t f 7 X - 0 0 f M d / q.l.4./ / / M 2 O ",
": t t r 0 f / #.S S R 9./ / t O 4 t , f w 9 7 0 0 0 0 9 7 0 < o = 0 0 0 l g 9 9 r ;.R t 0 9 < . - 0 9 f d / h.v.p.,./ #./ R < O ",
"< l t t t M q.o.#.#.M R o.D 5 O - 9 0 0 M #.f / o.t t 2 2 r < O - 9 9 0 0 0 0 9 r R R r 7 9 2 o % 9 t M o.;.q.#.d d d e.9.o.2 O ",
"2 f 9 9 w R #.i.p./ / #.9.l 7 O % M 0 7 f t 4.z.v.a.a.o.f r < o = 9 3 9 r 7 3 0 r t f t 0 M 9 + : M D M M o.t 0 R w 4.4.f M 2 O ",
"- r 0 2 0 / #.h.p.,.h.l./ t 2 o = g 7 9 9 d a.p.j.q.h.l.z.D < o = l t g D 0 7 f D 0 t d o.a.w @ < 4.M R / R w #.q.t q.o.S M < O ",
"- f f 0 0 d e.j.z.l.l.h.a.S 5 o = t 9 0 R h.p.z.l.p.a.p.z.M 5 o - 7.R M f M l R ! l l M 9.c.,.+ 5 q.t o.;.o.M q.4.f #./ o.R 2 O ",
"* < - - , 2 5 8 8 5 8 w q 8 5 + : < : 2 8 4 4 5 8 8 5 8 8 4 : o - 5 2 < : , < < < < , < 5 q 5 @ = 8 4 4 4 < < < : 4 4 2 2 < = O ",
"X   . . X . X O X X X X X X O O + . X X X . o o X X X X X X . X o X X . . . X X . . X . X . X O O X .   . . X o O X . X X . . . ",
"2 7 9 0 0 d a @ > ] ] 4.4.4.,.p ,./ w t S S p @ = 4.] y.x.a.i.i.i.,.d #.#.d 0 + % 7 5 7 S 4.y.k.x.y.,.4.y.S a @ : ^ ] S t w 0 7 ",
"g g ! ;.R 9.^ O 5 z.l.M.j.i.a.p.l.4.4.4.j.h.a O 4 v.q.A.V.j.j.,.l.j.p.l.h.e.t o % t M f / i.v.V.N.z.z.N.C.c.,.+ < z.h.q.o.o.! g ",
"0 0 R R t ;.a + 4 h.j.i./ 4.a.p p ^ S i.4.q.a O 4 a.p.N.j.p.] 9 w p.a.a.q.4.0 O % M f t 0 7 ] i.,.i.^ w i.v.] + > a.,.R M R t 0 ",
"r 0 D f f 9.a + 4 v.j.,.#./ 4.9 / a.#.p.a.j.a O 5 z.j.N.n.p.p.t R j.z.l.4.;.w X = D 0 t t 5 t #.4.4.d w d z.] + 5 z.i.S R ! M 0 ",
"r 9 0 t R 4.w + > v.4./ t t #.j.l.q./ q.l.a.w + 4 j.b.C.p.j.j.d o.c.z.h.4.o.0 X = g 0 R 0 0 0 q.j.f f t R h.] + 4 l.R R R R 0 9 ",
"9 9 l f M 4.w + < l.h.#.4.h.v.j.4./ R 4.4.#.8 + < M.b.n.4.i.#.0 0 q.a.p.a.R 8 o = g 0 t d 0 0 9.4.f f t d q.,.+ 4 h./ 4.R ;.0 9 ",
"f ! 4.d f 4.t + 5 z.a.p.q./ S t 0 0 f d / / w O 4 c.j.h.S 0 0 9 f t t a.] S 9 O - g 9 f R t 0 M 4.d w 0 t 9.p + < l.a.4./ M f t ",
"4.;.o.t f 9.w + 4 v.a.a./ t t 0 0 l f d S q.p + 5 v.] 4.S 7 0 R t f t q.q.#.9 o = 0 0 #.M f 7 R M 0 9 0 f R a + 5 g.d 4.4./ S o.",
"R M M f w 4.] + 5 v.a.p.R d 0 t t l M M R #.a + 8 v.4.,.] d M f 0 d M a.h.o.9 X = 0 t R d 7 0 0 0 f t t t t 7 + : d t f t 0 t #.",
"# # # # # & % O % = & $ $ # @ # # # # $ # # $ + % & & & % $ $ # # # $ & & $ $ X # # # # # @ + @ % # # + + # # X @ # # # @ @ $ $ ",
"+ # # # $ $ $ & # $ # # # @ # o O # @ # # + # $ # + + + # @ # X + % $ $ # @ @ + + + + # @ + @ o o @ + + # @ @ % # $ $ @ @ @ + X ",
"< 4.4.o.4.h.z.v.z.j.,.a.a.M 9 + : 7.R g M M q.i.R t 9 2 d M d o 5 v.q.h.p.o.M R M o.9.#.t t 5 O - w t R l.z.B.Z.n.M.M.z.j.#.9 + ",
"2 e.q.a.q.q.p.p.l.i.,.4.#.d 5 o : 9.f 0 r 9 4.;.0 0 7 9 3 2 < O 6 z.q.,.p.a.p.p.z.v.4.t w 0 : X % t 0 f 4.k.N.C.N.Z.Z.n.z.c.a o ",
"8 m.j.p.a.j.l.v.h.4.q.i./ d 9 X : o.d 0 0 0 / / 0 9 9 9 7 0 2 O 4 h.i.4.4.z.z.b.Z.n.p.i.4.M 9 O 2 ;.d / i.c.Z.S.A.A.Z.C.v.m.] + ",
"8 M.q.a.q.q.h.p.h.h.a.q.S f 2 o : D R 0 t t M t q.e.0 9 2 r 0 O < a.p.a.,.p.z.k.c.C.C.n.N.N.y.@ e V.v.z.v.F.S.Z.D.A.N.N.N.V.] @ ",
"w v.4.q.4.a.l.,.i.z.l.4.S f 7 o : f f o.#.;.t S v.,.r f t 9.^ + 4 c.p.h.S a.c.z.N.A.C.N.C.S.s.@ q A.N.S.D.F.S.S.A.C.N.N.M.Z.,.@ ",
"6 v.x.z.z.h.i.i.h.j.z.z.] M 9 o - M f M M / q.4./ 0 0 / / 4.d O 5 z.p.h.h.z.z.z.C.C.n.n.n.A.k.@ w F.A.S.A.Z.V.b.b.b.c.Z.C.M.5.# ",
"4 V.j.j.j.z.,.i.p.a.l.h.;.;.9 X - M g ;.4./ M 0 t a.q.0 9 4.w O 5 v.l.p.p.p.z.M.M.4.i.n.N.S.s.+ q S.N.C.V.C.q.] i.i.z.C.C.N.] # ",
"d C.j.c.l.p.i.#.4.z.h.,.4.o.7 o - D M 9.a.#.#.S 9.R 0 0 9 D 0 O 5 m.i.q.#.q.i.o.t 0 #.v.n.M.] + q F.Z.S.Z.c.q.S q.z.Z.C.z.N.y.@ ",
"q 5.^ ] ^ ^ p a w ] p w 8 7 < O : 0 5 w w 9 9 d d - , 2 2 7 5 @ 5 4.5 5 w 0 < < 2 0 0 t S w < O 4 4.] u.] a t 5 0 ^ ] ] p 4.^ $ ",
"@ @ + O O + + + O O + O o O O X o o X o O O O + o X O O O o + o + + X O O O + O O O O O X X O X O O + O O @ + + o + + O + + @ O ",
"< 5 6 6 6 5 4 + & 6 < 4 2 - - : : < : : < < - o # = = : 2 - < 8 < % : < 4 < : X % 4 2 2 5 4 : 4 2 : < < 5 4 < O $ 4 < 8 4 8 6 : ",
"o.l.Z.Z.v.M.5.+ 6 v.h.h.;.M M M 7.9.R o.4.;.0 o - l r M D t o.l.#.0 9.4.h.a.w X 4 h.h.a.c.l.a.M.h.4.a.4.l.h.8 o = o.e.l.z.c.4.t ",
"t t #.V.N.n.p O : a.i.4./ t 0 f R M f R o.o.7 X - M 0 0 9 t 0 t t R w f 4.l.w O : o.4.q.S / q.a.p S ;./ M M < o * 9 R a.j.4.w 0 ",
"t d R #.,.q.a + > 4.i.i.S M M f M f f #.;.0 1 o - l r 0 0 0 0 M R f S 4.S q.a o = R 4.a.#.S 4.t R #.a.;.f d w O - 0 o.M.p.S 0 f ",
"d f R f / a.d O 4 a.a.q./ w t f M d t o.R 0 2 o = ! 0 9 r r f M S f o./ S l.^ O 4 o./ a.#.q.#.S S #.h.4.f q.t O : 0 R z.a.t 0 f ",
"f t w d o.i.] @ 4 z.q./ / t 0 f w d o.;.R r 2 o = g 0 r g 0 f M f d t w / v.] + 8 a.;.4.#.e.#.#.4.q.a.,./ l.w O : l 0 o.#.M M f ",
"9 t f / #.z.,.+ 8 M.z.a.#.S 0 d t M R ! t 0 5 o = l 9 0 0 0 0 0 0 R / / q.v.] + 6 4.S 4.#.#./ 4.l.p.i.4.p.h.w X - o.t f t w f t ",
"9 0 t #.q.M.,.O 8 M.c.C.j.0 t 0 f R R 0 0 r 2 X - g 9 g g g t 0 l R t f f a.^ + 8 ,.M 4.#./ / v.c.S 4.j.l.9.9 X = ;.S t 0 f t 0 ",
"r 0 f 4.p.V.4.+ 6 Z.v.z.c.c.i.t t S R g 0 l 7 X % r g D g r D R l t t t t / p + 8 #.S q.a.9.4.h.p.h.h.q.a.d.0 o : 9.o.M D D g 0 ",
": : < 8 8 w 8 + 4 ^ w q e e 5 5 : , < : - , : o % , : , - : < 2 , : - : 2 5 < @ : < 2 8 5 4 5 < 2 8 8 2 4 8 2 + : 7 2 2 < , , : ",
". . X X . X O O + O o O O X X X . . . . X . X o o . . . . . X X X . X X X X X X X X X X . X X X X . X X X o X X X . . . . X . . ",
": t 7 9 5 / k.] y.a.k.j.k.x.d @ - S d 7 2 0 d S S t 0 9 0 0 7 + $ 0 0 9 0 0 9 < 5 0 d w ,.i.d + - S p a d a 8 9 w w 9 0 f t 5 + ",
"< ! f f f a.C.n.z.M.S.N.N.S.a.+ 5 M.c./ o.q.q.9.9.o.D f r l 7 o : D t t 0 t t 9 f R / a.v.v.S o < g.4.q.a.4./ S o.M M ! ;.&.7 O ",
"< M w w w h.N.k.j.v.x.C.c.M.y.@ 5 Z.v.c.c.a.R S #.M t 0 9 r 7 o = 0 r t t S R t S o.] z.z.j.8 O : S S p.p.a.q.S R S M f t M 7 O ",
": M w R / 4.b.k.c.j.a.S.A.N.] O q C.j.v.z.h.4.#./ R d t f D 7 X : ! 0 l M / q.q.a.4.l.c.c.c.w o < o.#.#.#.a./ 0 l M M g f R 9 + ",
"- M l #.q.t / z.M.z.v.S.C.C.u.+ e v.a.l.i.j.p.a.4.o.f g 0 g < X - 0 0 / R o.4.#.q.h.j.l.v.z.w O 5 c.j.c.a.#./ 0 0 0 g 0 t M 9 O ",
"- M f M 0 w / 4.j.v.V.c.n.C.a.@ q V.i.j.p.z.j.a.a./ M l 0 0 < X = r f o.4.M / / 4.i.z.z.j.j.] @ 8 N.C.V.i.M S f f t 0 0 M o.7 o ",
"= l t f f f M d h.z.l.c.n.M.y.+ w V.y.k.p.z.z.p.q.o.M R t 9 < X = g 0 o.t t 4.4.4.i.v.4.p c.] @ 6 Z.Z.z.#.d S #.R R t f o.M 2 o ",
"- g t R M t t w / #.a.c.C.x.p + 5 j.z.c.p.j.b.l.4.#.M M 0 0 < X * g g S w / #.;.h.z.4.,.4.c.] @ q F.C.b.q.t / / M t t f ;.M < o ",
"- 0 0 0 0 w 0 w 0 t ,.i.c.4.w + 5 c.z.z.j.p.c.q.#.#.R f 0 r 2 o = g M t M d S h.h.p S 4.,.z.y.@ e F.C.C.4.t M S M t R d.#.0 < O ",
"+ @ + # $ # # # # @ $ & & $ $ O $ = & ; % & & % % $ # @ # # # X + # # # $ # $ = $ # $ # $ & ; @ ; ; ; ; % # # % $ # $ % # # # X ",
"# # # @ O + # o O @ @ @ # $ @ $ % $ % $ @ $ & + + # # @ O O + + O + + @ O @ # X O @ @ # @ $ & & $ % & & & $ # o o @ # # @ @ # + ",
"e.o.;.R g &.M O : ;.R a.l.i.a.4.z.c.p.j.h.v.p.@ 4 e.! 0 9 r g r 9 0 l l g &.0 o : M o.q.z.Z.Z.N.N.M.Z.Z.Z.p.w O : o.q.;.M ;.;./ ",
"#.f d d f d.w X - ;.R d w d #.#.,.p.z.p.h.z.a O 4 h.f 0 7 r 0 0 9 0 g f M o.2 X = f S h.M.Z.C.S.Z.n.N.C.N.p.2 o : &.q./ M #.o.o.",
";.t f R D #.w O : ;./ t t w o.4.#.p.h.c.z.z.] @ < q.t 0 9 0 0 9 9 9 r g t g 7 o = g R o.q.x.c.V.x.v.b.N.C.4.5 o : M #.;.;.;.S ;.",
"o.R S f r t 4 o : &.t w M #.q.#.q.i.j.v.j.z.5.@ : R f l 7 7 9 7 7 9 r g r t 7 o * l f f f f / z.p.p.z.V.N.v.9 X - / / d 9.R / #.",
"w f 0 0 0 f 7 O : o.S t S a.e.a.i.a.l.z.j.l.^ o - M M t 0 t r 9 0 r t 0 0 D 7 X = D t 0 g 0 t d d ] 4.b.n.c.^ o : h./ o.;.R M t ",
"9 9 0 0 9 D 9 o = f o.R / q.a.q.p.p.q.j.j.#.8 o = M f t l l r 0 0 9 0 0 0 l 2 o - f t f M r 0 0 0 4.4.S p.z.^ + 4 h./ e.9.#.f 7 ",
"0 t f 0 0 &.5 X - ! ;.#./ ,.p.l.v.p.q.h.a.e.a O < 7.M l t t 0 9 r 7 9 r 0 r < o = l 0 R M r f f t l S S S i.a O < q.i.q.#.M 0 2 ",
"! 0 t t M o.7 X : &./ j.l.a.m.M.B.c.j.l.a.e.w O : ! g D D 0 0 r r 9 r r f g < X * M R M g l l r 0 f 0 ;.;.e.p O < h.a.;.d f 0 f ",
"8 5 2 7 9 7 < O - 9 9 a ^ a ] ] ] ^ ^ p a w 2 O : 9 < 7 7 < 1 1 1 1 < < 2 2 , o % 5 w t 2 7 5 < 5 5 5 7 9 t 8 + < w 8 9 9 5 7 w ",
"O + O + O O + X O O + + @ @ @ @ @ @ @ @ @ + O O + + O O O o o o O o o o O O + o O + @ @ O O O + O O + O O O + O @ + @ + @ O O O "
};
